<svg xmlns="http://www.w3.org/2000/svg" width="80" height="80" viewBox="0 0 80 80"><defs><style>.a{fill:rgba(246,75,93,0.05);}.b{fill:rgba(26,36,85,0.8);}.c{fill:#f87885;}.d{fill:#474f77;}</style></defs><g transform="translate(0 22.866)"><rect class="a" width="80" height="80" rx="8" transform="translate(0 -22.866)"/><g transform="translate(16 16)"><g transform="translate(0 -17.08)"><path class="b" d="M47.983,47.643a.925.925,0,0,0-.938-.91H32.881A7.174,7.174,0,0,1,31.7,48.557H46.11l.013,4.752H8.761l-.633-4.752H22.361a7.177,7.177,0,0,1-1.179-1.824H7.86l-1.1-6.606a.93.93,0,0,0-.926-.766H.938a.912.912,0,1,0,0,1.824h4.1l1.1,6.592.873,6.561v.007L9.244,70.2a3.483,3.483,0,0,0,3.288,2.955,5.05,5.05,0,0,0-1.228,3.3,5.2,5.2,0,0,0,10.405,0,5.05,5.05,0,0,0-1.224-3.3H32.01a5.05,5.05,0,0,0-1.224,3.3,5.2,5.2,0,0,0,10.405,0,5.052,5.052,0,0,0-1.279-3.359,4.973,4.973,0,0,0,4.149-4.172l1.944-13.79h1.057a.95.95,0,0,0,.664-.268A.9.9,0,0,0,48,54.219ZM16.506,79.75a3.3,3.3,0,1,1,3.328-3.3A3.316,3.316,0,0,1,16.506,79.75Zm19.483,0a3.3,3.3,0,1,1,3.328-3.3A3.316,3.316,0,0,1,35.989,79.75ZM42.2,68.675a3.118,3.118,0,0,1-3.084,2.658H12.7a1.619,1.619,0,0,1-1.6-1.383L9.012,55.133h35.1Z" transform="translate(0 -39.361)"/></g><g transform="translate(14.579 -22.867)"><circle class="c" cx="7.339" cy="7.339" r="7.339" transform="translate(2.101 10.378) rotate(-45)"/><path class="d" d="M263.37,61.005h-.885V60.12a.93.93,0,1,0-1.86,0v.885h-.885a.93.93,0,0,0,0,1.86h.885v.885a.93.93,0,1,0,1.86,0v-.885h.885a.93.93,0,1,0,0-1.86Z" transform="translate(-249.072 -51.559)"/><g transform="translate(0 24.552)"><path class="c" d="M155.085,251.961l-.987-10.8h5.529v10.8Z" transform="translate(-154.098 -241.156)"/></g><g transform="translate(9.887 24.552)"><path class="c" d="M0,0H10.8V4.542H0Z" transform="translate(4.542 0) rotate(90)"/></g><g transform="translate(18.786 24.552)"><path class="c" d="M356.118,251.961v-10.8h6.517l-1.974,10.8Z" transform="translate(-356.118 -241.156)"/></g></g></g></g></svg>