<svg xmlns="http://www.w3.org/2000/svg" width="72" height="52" viewBox="0 0 72 52"><defs><style>.a{fill:rgba(246,75,93,0.8);}.b{fill:rgba(26,36,85,0.8);}</style></defs><g transform="translate(0 -61.099)"><g transform="translate(6.5 77.099)"><path class="a" d="M3.972,1.648A.965.965,0,0,0,2.607.283L.283,2.606a.965.965,0,0,0,0,1.365L6.016,9.705A.965.965,0,1,0,7.381,8.34L5.143,6.1,6.6,4.645A.965.965,0,0,0,5.234,3.28L3.778,4.736,2.33,3.289Z" transform="translate(7.063 0.073) rotate(45)"/><path class="a" d="M9.8,6.766a.965.965,0,0,0,.061-1.929l-3.191-.2a3.228,3.228,0,0,0,.437-1.525A2.99,2.99,0,0,0,6.238.874a3.138,3.138,0,0,0-4.43.084L.285,2.482h0a.965.965,0,0,0,0,1.365L6.016,9.583A.965.965,0,0,0,7.382,8.218L5.668,6.5l4.069.259.063,0ZM3.174,2.324a1.222,1.222,0,0,1,1.7-.084,1.078,1.078,0,0,1,.3.808,1.333,1.333,0,0,1-.388.891c-.194.194-.527.53-.831.837-.3-.3-.627-.621-.813-.807l-.809-.806Z" transform="translate(15.255 0.412) rotate(45)"/><path class="a" d="M7.382,9.8,9.8,7.382A.965.965,0,0,0,8.432,6.017L6.7,7.75l-1.5-1.5L6.753,4.693A.965.965,0,0,0,5.387,3.328L3.832,4.883l-1.5-1.5L4.064,1.648A.965.965,0,0,0,2.7.283L.283,2.7a.965.965,0,0,0,0,1.365L3.149,6.93h0L6.016,9.8a.966.966,0,0,0,1.365,0Z" transform="translate(32.872 0) rotate(45)"/><path class="a" d="M6.7,10.08A.966.966,0,0,0,7.382,9.8L9.8,7.382A.965.965,0,1,0,8.432,6.016L6.7,7.75l-1.5-1.5L6.753,4.693A.965.965,0,1,0,5.387,3.328L3.832,4.883l-1.5-1.5L4.064,1.648A.965.965,0,0,0,2.7.283L.283,2.7a.965.965,0,0,0,0,1.365L6.016,9.8A.965.965,0,0,0,6.7,10.08Z" transform="translate(24.639 0) rotate(45)"/></g><g transform="translate(0 61.099)"><path class="b" d="M69.358,86.088l-4.015-2.332L62.525,68.774c0-.02-.008-.04-.013-.06A5.6,5.6,0,0,0,57.1,64.282H51.251l1.8,3.777A6.844,6.844,0,0,0,46.345,61.1H6.706A6.844,6.844,0,0,0,0,68.058v35.094a5.684,5.684,0,0,0,5.57,5.779h6.885a7.147,7.147,0,0,0,12.993,0H50.419a7.147,7.147,0,0,0,12.993,0H66.43A5.684,5.684,0,0,0,72,103.152V90.77a5.406,5.406,0,0,0-2.642-4.682Zm-16.306-12.2h7.57l1.759,9.354H53.052Zm4.044-6.7a2.773,2.773,0,0,1,2.675,2.175l.3,1.62H53.052V67.187ZM18.952,110.216a4.558,4.558,0,0,1-4.447-4.651,4.451,4.451,0,1,1,8.894,0A4.558,4.558,0,0,1,18.952,110.216Zm7.245-4.189a7.447,7.447,0,0,0-7.245-8.018,7.447,7.447,0,0,0-7.245,8.018H5.57a2.821,2.821,0,0,1-2.758-2.874V68.058A3.981,3.981,0,0,1,6.706,64H46.345a3.981,3.981,0,0,1,3.894,4.054V102.6a7.791,7.791,0,0,0-.568,3.427H26.2Zm30.719,4.189a4.558,4.558,0,0,1-4.447-4.651,4.451,4.451,0,1,1,8.894,0,4.558,4.558,0,0,1-4.447,4.651Zm12.272-7.064a2.821,2.821,0,0,1-2.758,2.874H64.16c.4-6.085-6.18-10.14-11.108-6.854V86.146H63.718L67.98,88.62a2.479,2.479,0,0,1,1.208,2.15Z" transform="translate(0 -61.099)"/></g></g></svg>