<svg xmlns="http://www.w3.org/2000/svg" width="72" height="46" viewBox="0 0 72 46"><defs><style>.a{fill:rgba(246,75,93,0.1);}.b{fill:rgba(26,36,85,0.8);}.c{fill:rgba(246,75,93,0.8);}</style></defs><g transform="translate(0 -101.309)"><path class="a" d="M337.936,112.666h40v46h-40Z" transform="translate(-305.936 -11.357)"/><path class="b" d="M70.594,101.309H1.406A1.448,1.448,0,0,0,0,102.8v43.026a1.448,1.448,0,0,0,1.406,1.487H70.594A1.448,1.448,0,0,0,72,145.822V102.8A1.448,1.448,0,0,0,70.594,101.309Zm-1.406,43.026H2.812V104.283H69.188Z"/><g transform="translate(30.5 111.951)"><path class="b" d="M283.937,152.606v1.19a1.5,1.5,0,0,0,3,0v-1.19A1.5,1.5,0,0,0,283.937,152.606Z" transform="translate(-283.937 -151.201)"/><path class="b" d="M285.437,332.426a1.457,1.457,0,0,0-1.5,1.41v1.188a1.5,1.5,0,0,0,3,0v-1.188A1.457,1.457,0,0,0,285.437,332.426Z" transform="translate(-283.937 -311.426)"/><path class="b" d="M285.437,272a1.457,1.457,0,0,0-1.5,1.41V274.6a1.5,1.5,0,0,0,3,0V273.41A1.457,1.457,0,0,0,285.437,272Z" transform="translate(-283.937 -258)"/><path class="b" d="M285.437,211.574a1.457,1.457,0,0,0-1.5,1.41v1.188a1.5,1.5,0,0,0,3,0v-1.188A1.457,1.457,0,0,0,285.437,211.574Z" transform="translate(-283.937 -204.574)"/></g><g transform="translate(46.5 132.309) rotate(-90)"><path class="c" d="M8.106.131a1.4,1.4,0,0,0-1.908.9L.114,17.678a1.772,1.772,0,0,0,.78,2.191,1.4,1.4,0,0,0,1.908-.9L8.886,2.322A1.772,1.772,0,0,0,8.106.131Z" transform="translate(18 1) rotate(90)"/><path class="c" d="M8,4.5A4.281,4.281,0,0,0,3.989,0c-5.32.244-5.318,8.757,0,9A4.281,4.281,0,0,0,8,4.5Zm-5.2,0c0-.887.545-1.637,1.191-1.637S5.18,3.613,5.18,4.5,4.635,6.137,3.989,6.137,2.8,5.387,2.8,4.5Z" transform="translate(18 -5) rotate(90)"/><path class="c" d="M4,0A4.284,4.284,0,0,0,0,4.512c.221,5.985,7.78,5.984,8,0A4.284,4.284,0,0,0,4,0ZM4,6.153c-.644,0-1.188-.752-1.188-1.641S3.356,2.87,4,2.87s1.188.752,1.188,1.641S4.644,6.153,4,6.153Z" transform="translate(7 8) rotate(90)"/></g></g></svg>