<svg xmlns="http://www.w3.org/2000/svg" width="72" height="46" viewBox="0 0 72 46"><defs><style>.a{fill:rgba(246,75,93,0.1);}.b{fill:rgba(26,36,85,0.8);}.c{fill:rgba(246,75,93,0.8);font-size:24px;font-family:Montserrat-Bold, Montserrat;font-weight:700;letter-spacing:0.024em;}</style></defs><g transform="translate(72.839 -98.28) rotate(90)"><rect class="a" width="46" height="40" rx="1" transform="translate(98.28 32.838)"/><path class="b" d="M144,22.768,132.6,7.833a1.476,1.476,0,0,0-1.175-.573h-8.684V1.4a1.46,1.46,0,0,0-2.917,0V7.26h-8.684a1.477,1.477,0,0,0-1.175.573l-11.4,14.935a1.373,1.373,0,0,0-.284.834V70.593A1.433,1.433,0,0,0,99.739,72h43.083a1.433,1.433,0,0,0,1.459-1.406V23.6a1.372,1.372,0,0,0-.284-.834Zm-2.633,46.419H101.2V24.063l10.678-13.99h7.946v5.342a5.69,5.69,0,0,0-4.4,5.459c.322,7.477,11.393,7.475,11.714,0a5.691,5.691,0,0,0-4.4-5.459V10.073h7.946l10.678,13.99ZM121.28,18.051a2.886,2.886,0,0,1,2.94,2.823,2.943,2.943,0,0,1-5.879,0A2.887,2.887,0,0,1,121.28,18.051Z" transform="translate(0 0.839)"/><text class="c" transform="translate(130.28 52.838) rotate(-90)"><tspan x="-8.688" y="0">₹</tspan></text></g></svg>