<svg xmlns="http://www.w3.org/2000/svg" width="80" height="80" viewBox="0 0 80 80"><defs><style>.a{fill:rgba(246,75,93,0.05);}.b{fill:rgba(26,36,85,0.8);}.c{fill:#f87885;}</style></defs><g transform="translate(11 -22.922)"><rect class="a" width="80" height="80" rx="8" transform="translate(-11 22.922)"/><g transform="translate(1 1)"><g transform="translate(0 37.922)"><path class="b" d="M53.674,51.424h-.161a16.6,16.6,0,0,0-1.181-2.87l.121-.122a2.35,2.35,0,0,0,0-3.3l-3.6-3.627a2.318,2.318,0,0,0-3.294,0l-.113.114A16.341,16.341,0,0,0,42.6,40.429V40.26a2.335,2.335,0,0,0-2.326-2.338H35.191a2.335,2.335,0,0,0-2.326,2.338v.169a16.346,16.346,0,0,0-2.846,1.189l-.113-.114a2.318,2.318,0,0,0-3.294,0l-3.6,3.626a2.35,2.35,0,0,0,0,3.3l.121.122a16.611,16.611,0,0,0-1.181,2.87h-.161a2.335,2.335,0,0,0-2.326,2.338v3.593l-.036-.012a2.116,2.116,0,0,0-2.108-2.116H13.137a2.116,2.116,0,0,0-2.108,2.116,13.646,13.646,0,0,0-2.113.883,2.1,2.1,0,0,0-2.978.007L2.976,61.219a2.131,2.131,0,0,0,0,2.993A13.858,13.858,0,0,0,2.1,66.343,2.116,2.116,0,0,0,0,68.462v4.225a2.116,2.116,0,0,0,2.1,2.119,13.873,13.873,0,0,0,.877,2.132,2.13,2.13,0,0,0,0,2.993l2.962,2.985a2.1,2.1,0,0,0,2.978.007,13.629,13.629,0,0,0,2.113.883,2.116,2.116,0,0,0,2.108,2.116h4.186a2.116,2.116,0,0,0,2.108-2.116,13.644,13.644,0,0,0,2.113-.883,2.1,2.1,0,0,0,2.978-.007l2.962-2.985a2.13,2.13,0,0,0,0-2.993,13.874,13.874,0,0,0,.877-2.132,2.116,2.116,0,0,0,2.1-2.119V71.236a19.251,19.251,0,0,0,2.4.985V72.4a2.335,2.335,0,0,0,2.326,2.338h5.085A2.335,2.335,0,0,0,42.6,72.4v-.169a16.345,16.345,0,0,0,2.846-1.189l.113.114a2.318,2.318,0,0,0,3.294,0l3.6-3.626a2.35,2.35,0,0,0,0-3.3l-.121-.122a16.6,16.6,0,0,0,1.181-2.87h.161A2.335,2.335,0,0,0,56,58.9V53.762a2.335,2.335,0,0,0-2.326-2.338Zm-25.4,21.182h-.737a1.1,1.1,0,0,0-1.061.832,11.66,11.66,0,0,1-1.286,3.127,1.106,1.106,0,0,0,.165,1.342l.523.527-2.849,2.871-.521-.525a1.089,1.089,0,0,0-1.336-.167,11.468,11.468,0,0,1-3.1,1.3,1.1,1.1,0,0,0-.826,1.067v.744H13.217v-.744a1.1,1.1,0,0,0-.826-1.067,11.465,11.465,0,0,1-3.1-1.3,1.089,1.089,0,0,0-1.336.167l-.521.525L4.583,78.435l.523-.527a1.106,1.106,0,0,0,.165-1.342,11.661,11.661,0,0,1-1.286-3.127,1.1,1.1,0,0,0-1.061-.832H2.187V68.544h.737a1.1,1.1,0,0,0,1.061-.832,11.657,11.657,0,0,1,1.286-3.127,1.106,1.106,0,0,0-.165-1.342l-.523-.527,2.849-2.871.521.525a1.089,1.089,0,0,0,1.336.167,11.471,11.471,0,0,1,3.1-1.3,1.1,1.1,0,0,0,.826-1.067v-.744h4.027v.744a1.1,1.1,0,0,0,.826,1.067,11.471,11.471,0,0,1,3.1,1.3,1.089,1.089,0,0,0,1.336-.167l.521-.525,2.849,2.871-.523.527a1.106,1.106,0,0,0-.165,1.342,11.663,11.663,0,0,1,1.286,3.127,1.1,1.1,0,0,0,1.061.832h.737ZM53.812,58.9a.138.138,0,0,1-.138.137h-.991a1.1,1.1,0,0,0-1.061.832,14.4,14.4,0,0,1-1.589,3.862,1.106,1.106,0,0,0,.165,1.342l.706.712a.137.137,0,0,1,0,.192l-3.6,3.626a.14.14,0,0,1-.2,0l-.7-.706a1.089,1.089,0,0,0-1.336-.167,14.166,14.166,0,0,1-3.832,1.6,1.1,1.1,0,0,0-.826,1.067v1a.138.138,0,0,1-.138.137H35.191a.138.138,0,0,1-.138-.137v-1a1.1,1.1,0,0,0-.826-1.067,16.911,16.911,0,0,1-3.766-1.568v-.3a2.116,2.116,0,0,0-2.1-2.119,13.854,13.854,0,0,0-.877-2.132,2.131,2.131,0,0,0,0-2.993l-2.962-2.985a2.1,2.1,0,0,0-2.867-.11V53.762a.138.138,0,0,1,.138-.137h.991a1.1,1.1,0,0,0,1.061-.832,14.4,14.4,0,0,1,1.589-3.863,1.106,1.106,0,0,0-.165-1.342l-.706-.712a.136.136,0,0,1,0-.192l3.6-3.626a.14.14,0,0,1,.2,0l.7.706a1.088,1.088,0,0,0,1.336.167,14.166,14.166,0,0,1,3.832-1.6,1.1,1.1,0,0,0,.826-1.067v-1a.138.138,0,0,1,.138-.137h5.085a.138.138,0,0,1,.138.137v1a1.1,1.1,0,0,0,.826,1.067,14.161,14.161,0,0,1,3.832,1.6,1.089,1.089,0,0,0,1.336-.167l.7-.706a.14.14,0,0,1,.2,0l3.6,3.626a.136.136,0,0,1,0,.192l-.706.712a1.106,1.106,0,0,0-.165,1.342,14.4,14.4,0,0,1,1.589,3.863,1.1,1.1,0,0,0,1.061.832h.991a.138.138,0,0,1,.138.137Z" transform="translate(0 -37.922)"/><path class="b" d="M265.123,115.228a9.968,9.968,0,1,0,9.954,9.968A9.972,9.972,0,0,0,265.123,115.228Zm0,17.719a7.752,7.752,0,1,1,7.738-7.752A7.753,7.753,0,0,1,265.123,132.947Z" transform="translate(-227.459 -106.762)"/></g><g transform="translate(8.149 63.256)"><g transform="translate(0 0)"><ellipse class="c" cx="7.282" cy="7.293" rx="7.282" ry="7.293"/></g></g></g></g></svg>