<svg xmlns="http://www.w3.org/2000/svg" xmlns:xlink="http://www.w3.org/1999/xlink" width="512" height="344" viewBox="0 0 512 344"><defs><style>.a{fill:url(#a);}.b{fill:#fff;}.c{fill:#f2f2f2;}.d{fill:#ff5353;}.e{fill:#ffb300;}.f{fill:#60bc57;}.g,.i{fill:#f64b5d;}.g{opacity:0.3;}.h{fill:#3f3d56;}</style><linearGradient id="a" x1="0.381" y1="1" x2="0.387" gradientUnits="objectBoundingBox"><stop offset="0" stop-color="gray" stop-opacity="0.251"/><stop offset="0.581" stop-color="gray" stop-opacity="0.122"/><stop offset="1" stop-color="gray" stop-opacity="0.102"/></linearGradient></defs><g transform="translate(-35.231)"><rect class="a" width="512" height="344" rx="6" transform="translate(35.231)"/><rect class="b" width="496" height="320" rx="6" transform="translate(43.231 16)"/><rect class="c" width="496" height="24" transform="translate(43.231 0)"/><circle class="d" cx="5.795" cy="5.795" r="5.795" transform="translate(56.882 6.082)"/><circle class="e" cx="5.795" cy="5.795" r="5.795" transform="translate(72.823 6.082)"/><circle class="f" cx="5.795" cy="5.795" r="5.795" transform="translate(88.765 6.082)"/><g transform="translate(-69.815 -0.469)"><rect class="g" width="247.941" height="129.861" transform="translate(159.023 118.931)"/><rect class="h" width="99.446" height="5.501" transform="translate(426.036 113.27)"/><rect class="h" width="144.726" height="5.501" transform="translate(426.036 123.426)"/><rect class="h" width="99.446" height="5.501" transform="translate(426.036 147.971)"/><rect class="h" width="99.446" height="5.501" transform="translate(426.036 188.596)"/><rect class="h" width="144.726" height="5.501" transform="translate(426.036 158.127)"/><rect class="h" width="144.726" height="5.501" transform="translate(426.036 168.283)"/><rect class="h" width="144.726" height="5.501" transform="translate(426.036 178.439)"/><rect class="i" width="52.051" height="14.388" transform="translate(426.036 213.14)"/><rect class="h" width="247.941" height="129.861" transform="translate(148.365 105.469)"/><ellipse class="b" cx="28.057" cy="28.108" rx="28.057" ry="28.108" transform="translate(248.891 144.833)"/><path class="i" d="M571.478,363.423a33.532,33.532,0,1,0,33.532,33.532A33.532,33.532,0,0,0,571.478,363.423Zm-6.884,51.41-17.185-17.185,4.82-4.82,12.381,12.381,26.132-26.132,4.82,4.82-30.969,30.937Z" transform="translate(-294.53 -223.381)"/></g></g></svg>