<svg xmlns="http://www.w3.org/2000/svg" width="80" height="80" viewBox="0 0 80 80"><defs><style>.a{fill:rgba(246,75,93,0.05);}.b{fill:rgba(26,36,85,0.8);}.c{fill:#f87885;}.d{fill:none;stroke:#474f77;stroke-linecap:round;stroke-linejoin:round;stroke-width:2.5px;}</style></defs><g transform="translate(-149 -12)"><rect class="a" width="80" height="80" rx="8" transform="translate(149 12)"/><g transform="translate(162 8)"><g transform="translate(0 20)"><path class="b" d="M206.319,210.4H193.956a1.009,1.009,0,0,0,0,2.017h12.364a1.009,1.009,0,1,0,0-2.017Z" transform="translate(-172.667 -191.035)"/><path class="b" d="M193.956,170.52a1.009,1.009,0,0,0,0,2.017h8.037a1.009,1.009,0,0,0,0-2.017Z" transform="translate(-172.936 -155.224)"/><path class="b" d="M206.319,378.179H193.956a1.009,1.009,0,0,0,0,2.017h12.364a1.009,1.009,0,1,0,0-2.017Z" transform="translate(-172.667 -341.711)"/><path class="b" d="M193.956,340.319h8.037a1.009,1.009,0,0,0,0-2.017h-8.037a1.009,1.009,0,0,0,0,2.017Z" transform="translate(-172.936 -305.9)"/><path class="b" d="M36.7,20.5H2.75A2.737,2.737,0,0,0,0,23.218V65.781A2.737,2.737,0,0,0,2.75,68.5H36.7a2.737,2.737,0,0,0,2.75-2.718V23.218A2.737,2.737,0,0,0,36.7,20.5Zm.688,45.281a.685.685,0,0,1-.688.68H2.75a.685.685,0,0,1-.688-.68V23.218a.685.685,0,0,1,.688-.68H36.7a.685.685,0,0,1,.688.68Z" transform="translate(0 -20.5)"/><path class="b" d="M102.956,89.658a1.028,1.028,0,0,0-1.047-1.009H80.6a1.009,1.009,0,1,0,0,2.017h21.313A1.028,1.028,0,0,0,102.956,89.658Z" transform="translate(-71.544 -81.775)"/><g transform="translate(6.132 13.668)"><g transform="translate(0 17.191)"><circle class="c" cx="5.29" cy="5.29" r="5.29"/><path class="d" d="M5.133,8.749l1.212,1.817L9.1,6.6" transform="translate(-1.827 -3.293)"/></g><circle class="c" cx="5.29" cy="5.29" r="5.29"/><path class="d" d="M5.133,8.749l1.212,1.817L9.1,6.6" transform="translate(-1.827 -3.293)"/></g></g><path class="b" d="M414.393,20h-5.781a2.422,2.422,0,0,0-2.4,2.44V59.615a1.018,1.018,0,0,0,.146.53l4.283,7.355a.992.992,0,0,0,1.721,0l4.283-7.355a1.376,1.376,0,0,0,.146-.53V22.44A2.422,2.422,0,0,0,414.393,20Zm-6.18,38.6V28.441H410.5V58.6ZM412.5,28.441h2.289V58.6H412.5Zm-4.289-6a.4.4,0,0,1,.4-.406h5.781a.4.4,0,0,1,.4.406v3.967h-6.579ZM411.5,64.987l-2.535-4.354h5.07Z" transform="translate(-362.792)"/></g></g></svg>