<svg xmlns="http://www.w3.org/2000/svg" xmlns:xlink="http://www.w3.org/1999/xlink" width="512" height="344" viewBox="0 0 512 344"><defs><style>.a{fill:url(#a);}.b{fill:#fff;}.c{fill:#f2f2f2;}.d{fill:#ff5353;}.e{fill:#ffb300;}.f{fill:#60bc57;}.g{fill:#3f3d56;}.h,.i{fill:#f64b5d;}.i,.k,.l{opacity:0.1;}.j{fill:#fbbebe;}</style><linearGradient id="a" x1="0.381" y1="1" x2="0.387" gradientUnits="objectBoundingBox"><stop offset="0" stop-color="gray" stop-opacity="0.251"/><stop offset="0.581" stop-color="gray" stop-opacity="0.122"/><stop offset="1" stop-color="gray" stop-opacity="0.102"/></linearGradient></defs><g transform="translate(-35.231)"><rect class="a" width="512" height="344" rx="6" transform="translate(35.231)"/><rect class="b" width="496" height="312" rx="6" transform="translate(43.231 24)"/><rect class="c" width="496" height="24" transform="translate(43.231 0)"/><circle class="d" cx="5.795" cy="5.795" r="5.795" transform="translate(56.882 6.082)"/><circle class="e" cx="5.795" cy="5.795" r="5.795" transform="translate(72.823 6.082)"/><circle class="f" cx="5.795" cy="5.795" r="5.795" transform="translate(88.765 6.082)"/><g transform="translate(-69.815 6.238)"><rect class="g" width="99.446" height="5.501" transform="translate(426.036 113.27)"/><rect class="g" width="144.726" height="5.501" transform="translate(426.036 123.426)"/><rect class="g" width="99.446" height="5.501" transform="translate(426.036 147.971)"/><rect class="g" width="99.446" height="5.501" transform="translate(426.036 188.596)"/><rect class="g" width="144.726" height="5.501" transform="translate(426.036 158.127)"/><rect class="g" width="144.726" height="5.501" transform="translate(426.036 168.283)"/><rect class="g" width="144.726" height="5.501" transform="translate(426.036 178.439)"/><rect class="h" width="52.051" height="14.388" transform="translate(426.036 213.14)"/><g transform="translate(149.319 77.762)"><path class="i" d="M643.782,317.248a7.173,7.173,0,0,0-4.162.454,6.133,6.133,0,0,1-5.021-.022,7.014,7.014,0,0,0-5.877.114,3.634,3.634,0,0,1-1.693.424c-2.383,0-4.366-2.4-4.778-5.567a4.611,4.611,0,0,0,1.191-1.286,6.693,6.693,0,0,1,11.949-.04,4.6,4.6,0,0,0,3.971,2.174h.062C641.327,313.51,642.97,315.032,643.782,317.248Z" transform="translate(-487.165 -263.74)"/><path class="i" d="M651.074,280.559,647.222,283l2.338-4.254a3.822,3.822,0,0,0-2.331-.831h-.062a4.507,4.507,0,0,1-.8-.057l-1.3.827.561-1.018a4.636,4.636,0,0,1-2.283-1.737l-2.338,1.489,1.489-2.683a6.843,6.843,0,0,0-5.235-2.648,7.178,7.178,0,0,0-5.992,3.7,4.468,4.468,0,0,1-3.971,2.135h-.132c-2.683,0-4.857,3.043-4.857,6.793s2.174,6.793,4.857,6.793a3.654,3.654,0,0,0,1.693-.422,7,7,0,0,1,5.877-.117,6.133,6.133,0,0,0,5,.012,7.022,7.022,0,0,1,5.828.112,3.636,3.636,0,0,0,1.673.415c2.683,0,4.857-3.041,4.857-6.793a8.627,8.627,0,0,0-1.02-4.157Z" transform="translate(-487.21 -236.992)"/><path class="j" d="M589.816,271.441a1.927,1.927,0,0,0-.206-.648,1.472,1.472,0,0,0-.3-.318,1.986,1.986,0,0,0-.645-.4.8.8,0,0,0-.745.084.978.978,0,0,0-.323.673,1.66,1.66,0,0,0,.174,1.02,4.258,4.258,0,0,0,.827.851,3.229,3.229,0,0,1,.541.673,1.881,1.881,0,0,0,.248.36.464.464,0,0,0,.39.154.673.673,0,0,0,.318-.186c.117-.1.434-.288.444-.452s-.248-.432-.3-.556a6.283,6.283,0,0,1-.42-1.253Z" transform="translate(-461.098 -235.434)"/><g class="k" transform="translate(75.452 34.049)"><path class="g" d="M454.641,652.28v1.278a4.79,4.79,0,0,1-9.581,0V652.28a4.79,4.79,0,1,1,9.581,0Z" transform="translate(-429.406 -553.265)"/><path class="g" d="M445.06,566.056V564.78a4.79,4.79,0,0,1,9.581,0v1.276a4.736,4.736,0,0,1-.206,1.385,4.788,4.788,0,0,1-9.375-1.385Z" transform="translate(-429.406 -487.482)"/><path class="g" d="M454.641,608.49v1.278a4.79,4.79,0,1,1-9.581,0V608.49a4.79,4.79,0,1,1,9.581,0Z" transform="translate(-429.406 -520.343)"/><path class="g" d="M449.85,691.24a4.805,4.805,0,0,1,4.79,4.793v1.276a4.79,4.79,0,0,1-9.581,0v-1.276a4.805,4.805,0,0,1,4.79-4.793Z" transform="translate(-429.406 -586.156)"/><path class="l" d="M445.06,579.78v1.154a4.788,4.788,0,0,0,9.375,1.382Z" transform="translate(-429.406 -502.36)"/><path class="l" d="M445.06,623.53v1.157a4.79,4.79,0,0,0,9.375,1.385Z" transform="translate(-429.406 -535.252)"/><path class="l" d="M445.06,667.29v1.154a4.79,4.79,0,0,0,9.375,1.385Z" transform="translate(-429.406 -568.15)"/><path class="l" d="M445.06,711v1.154a4.788,4.788,0,0,0,9.375,1.385Z" transform="translate(-429.406 -601.011)"/><path class="g" d="M402.626,618.717l.382.293a1.809,1.809,0,0,0,2.576-2.482,1.77,1.77,0,0,0-.365-.382l-.382-.288a1.81,1.81,0,0,0-2.212,2.867Z" transform="translate(-396.975 -529.2)"/><path class="g" d="M417.927,625.918l.382.3a1.81,1.81,0,0,1-2.212,2.867l-.382-.3a1.81,1.81,0,1,1,2.212-2.867Z" transform="translate(-406.816 -536.763)"/><path class="g" d="M431.007,636.018l.382.3a1.81,1.81,0,0,1-2.211,2.867l-.382-.3a1.81,1.81,0,0,1,2.212-2.867Z" transform="translate(-416.649 -544.357)"/><path class="g" d="M444.082,646.118l.382.3a1.81,1.81,0,1,1-2.211,2.867l-.387-.3a1.81,1.81,0,1,1,2.211-2.867Z" transform="translate(-426.475 -551.95)"/><path class="l" d="M404.9,621.917l.348.266a1.809,1.809,0,0,0,2.576-2.482Z" transform="translate(-399.214 -532.372)"/><path class="l" d="M418,632.016l.347.266a1.809,1.809,0,0,0,2.576-2.482Z" transform="translate(-409.063 -539.965)"/><path class="l" d="M431.08,642.116l.345.266A1.809,1.809,0,0,0,434,639.9Z" transform="translate(-418.896 -547.558)"/><path class="h" d="M394.72,297.885a5.43,5.43,0,1,0,0,10.86,5.431,5.431,0,1,0,0,10.858,5.431,5.431,0,0,0,0,10.861,5.43,5.43,0,1,0,0,10.86h26.19a5.43,5.43,0,1,0,0-10.86,5.43,5.43,0,1,0,0-10.861,5.431,5.431,0,1,0,0-10.858,5.43,5.43,0,1,0,0-10.86,5.43,5.43,0,1,0,0-10.861,5.431,5.431,0,1,0,0-10.858h-1.2c-.688-4.671-5.957-8.3-12.378-8.3s-11.69,3.634-12.378,8.3h-.248a5.43,5.43,0,1,0,0,10.86,5.43,5.43,0,1,0,0,10.861Z" transform="translate(-387.372 -267.86)"/><path class="l" d="M389.72,306.748a5.446,5.446,0,0,0,5.431,5.431h26.19L395.31,301.32h-.159A5.446,5.446,0,0,0,389.72,306.748Z" transform="translate(-387.802 -293.015)"/><path class="l" d="M442.611,350.551a5.461,5.461,0,0,1-5.431,5.431H411l26.034-10.861h.159A5.46,5.46,0,0,1,442.611,350.551Z" transform="translate(-403.8 -325.944)"/><path class="l" d="M442.611,438.011a5.446,5.446,0,0,1-5.431,5.428H411l26.034-10.859h.159A5.446,5.446,0,0,1,442.611,438.011Z" transform="translate(-403.8 -391.696)"/><path class="l" d="M442.611,525.551a5.446,5.446,0,0,1-5.431,5.428H411l26.034-10.859h.159A5.446,5.446,0,0,1,442.611,525.551Z" transform="translate(-403.8 -457.508)"/><path class="l" d="M389.72,394.258a5.446,5.446,0,0,0,5.431,5.431h26.19L395.31,388.83h-.159A5.446,5.446,0,0,0,389.72,394.258Z" transform="translate(-387.802 -358.805)"/><path class="l" d="M389.72,481.761a5.46,5.46,0,0,0,5.431,5.431h26.19L395.31,476.33h-.159A5.46,5.46,0,0,0,389.72,481.761Z" transform="translate(-387.802 -424.587)"/><path class="h" d="M386.911,612.237l8.625-4.644a4.532,4.532,0,0,1-1.1-6.322,2.031,2.031,0,0,0-2.75-.827l-.395.214c-1.055-1.417-3.438-1.678-5.55-.541s-3.2,3.269-2.6,4.929l-.077.042a4.544,4.544,0,0,1,1.1,6.328,2.031,2.031,0,0,0,2.751.825Z" transform="translate(-381.992 -517.116)"/><path class="l" d="M382.274,621.812a2.038,2.038,0,0,0,2.75.827L393.642,618l-10.5,1.04-.052.027A2.038,2.038,0,0,0,382.274,621.812Z" transform="translate(-382.024 -531.094)"/><path class="l" d="M411.049,618.189a2.035,2.035,0,0,1-.824,2.75l-8.625,4.644,6.647-8.191.052-.03a2.038,2.038,0,0,1,2.75.827Z" transform="translate(-396.733 -530.435)"/></g><g class="k" transform="translate(46.904 116.358)"><path class="g" d="M287.814,709.488v.365a1.375,1.375,0,0,1-2.748,0v-.365a1.375,1.375,0,1,1,2.748,0Z" transform="translate(-280.575 -681.106)"/><path class="g" d="M285.07,685.119v-.367a1.375,1.375,0,0,1,2.748,0v.367a1.328,1.328,0,0,1-.06.4,1.373,1.373,0,0,1-2.688-.4Z" transform="translate(-280.578 -662.597)"/><path class="g" d="M287.814,696.948v.365a1.375,1.375,0,0,1-2.748,0v-.365a1.375,1.375,0,1,1,2.748,0Z" transform="translate(-280.575 -671.679)"/><path class="g" d="M286.441,720.83a1.378,1.378,0,0,1,1.373,1.375v.365a1.375,1.375,0,1,1-2.748,0v-.365a1.377,1.377,0,0,1,1.375-1.375Z" transform="translate(-280.575 -690.711)"/><path class="l" d="M285.07,688.89v.33a1.373,1.373,0,0,0,2.688.4Z" transform="translate(-280.578 -666.698)"/><path class="l" d="M285.07,701.43v.33a1.373,1.373,0,0,0,2.688.4Z" transform="translate(-280.578 -676.126)"/><path class="l" d="M285.07,714v.33a1.373,1.373,0,0,0,2.688.4Z" transform="translate(-280.578 -685.576)"/><path class="l" d="M285.07,726.51v.33a1.373,1.373,0,0,0,2.688.4Z" transform="translate(-280.578 -694.981)"/><path class="g" d="M272.924,700.033l.109.087a.519.519,0,0,0,.745-.712.5.5,0,0,0-.1-.112l-.109-.084a.519.519,0,1,0-.635.822Z" transform="translate(-271.3 -674.376)"/><path class="g" d="M277.295,702.111l.109.084a.519.519,0,1,1-.633.822l-.112-.084a.519.519,0,0,1,.635-.822Z" transform="translate(-274.104 -676.556)"/><path class="g" d="M281.085,705.03l.109.084a.519.519,0,1,1-.633.822l-.109-.084a.519.519,0,0,1,.633-.822Z" transform="translate(-276.963 -678.758)"/><path class="g" d="M284.835,707.93l.109.084a.519.519,0,1,1-.633.822l-.109-.084a.519.519,0,0,1,.633-.822Z" transform="translate(-279.783 -680.938)"/><path class="l" d="M273.56,700.965l.1.077a.519.519,0,0,0,.745-.712Z" transform="translate(-271.925 -675.299)"/><path class="l" d="M277.32,703.855l.1.077a.519.519,0,0,0,.745-.712Z" transform="translate(-274.752 -677.471)"/><path class="l" d="M281.07,706.748l.1.074a.519.519,0,0,0,.727-.092.526.526,0,0,0,0-.62Z" transform="translate(-277.571 -679.644)"/><path class="h" d="M270.766,608.085a3.539,3.539,0,0,1-1.5,4.67,1.557,1.557,0,0,1-.06,3.114,1.556,1.556,0,1,1,0,3.112,1.556,1.556,0,0,0,1.556,1.556h7.508a3.48,3.48,0,0,1,1.556-4.669,1.557,1.557,0,0,1-.06-3.114,1.557,1.557,0,0,1,.06-3.114,1.556,1.556,0,1,1,0-3.112,1.556,1.556,0,1,1,0-3.112,1.556,1.556,0,0,0-1.556-1.556h-.342c-.2-1.338-1.71-2.38-3.549-2.38s-3.351,1.042-3.547,2.38h-.069a3.48,3.48,0,0,1-1.556,4.669A1.556,1.556,0,0,0,270.766,608.085Z" transform="translate(-268.655 -599.48)"/><path class="l" d="M269.21,610.626a1.561,1.561,0,0,0,1.556,1.556h7.508l-7.461-3.112h-.047a1.561,1.561,0,0,0-1.556,1.556Z" transform="translate(-268.655 -606.69)"/><path class="l" d="M284.364,623.166a1.561,1.561,0,0,1-1.556,1.556H275.3l7.461-3.112h.047A1.561,1.561,0,0,1,284.364,623.166Z" transform="translate(-273.233 -616.117)"/><path class="l" d="M284.364,648.279a1.564,1.564,0,0,1-1.556,1.556H275.3l7.461-3.115h.047a1.564,1.564,0,0,1,1.556,1.559Z" transform="translate(-273.233 -634.995)"/><path class="l" d="M284.364,673.336a1.561,1.561,0,0,1-1.556,1.556H275.3l7.461-3.112h.047a1.561,1.561,0,0,1,1.556,1.556Z" transform="translate(-273.233 -653.835)"/><path class="l" d="M269.21,635.706a1.561,1.561,0,0,0,1.556,1.556h7.508l-7.461-3.112h-.047a1.561,1.561,0,0,0-1.556,1.556Z" transform="translate(-268.655 -625.545)"/><path class="l" d="M269.21,660.8a1.561,1.561,0,0,0,1.556,1.556h7.508l-7.461-3.112h-.047A1.561,1.561,0,0,0,269.21,660.8Z" transform="translate(-268.655 -644.407)"/><path class="h" d="M269.3,698.186l2.482-1.333a1.3,1.3,0,0,1-.315-1.812.581.581,0,0,0-.789-.236l-.112.06a1.433,1.433,0,0,0-2.336,1.258l-.022.012a1.3,1.3,0,0,1,.315,1.812A.583.583,0,0,0,269.3,698.186Z" transform="translate(-267.881 -670.921)"/><path class="l" d="M267.05,700.962a.583.583,0,0,0,.789.248l2.482-1.33-3.021.278h-.015a.583.583,0,0,0-.236.8Z" transform="translate(-266.974 -674.96)"/><path class="l" d="M275.3,699.9a.586.586,0,0,1-.236.789l-2.482,1.33,1.9-2.348h.015a.586.586,0,0,1,.8.228Z" transform="translate(-271.188 -674.749)"/></g><g class="k" transform="translate(170.808 9.442)"><path class="g" d="M834.26,637.31v1.556a5.84,5.84,0,1,0,11.68,0V637.31a5.84,5.84,0,1,0-11.68,0Z" transform="translate(-817.361 -516.614)"/><path class="g" d="M845.94,532.2V530.64a5.84,5.84,0,0,0-11.68,0V532.2a5.741,5.741,0,0,0,.248,1.688,5.838,5.838,0,0,0,11.417-1.688Z" transform="translate(-817.361 -436.42)"/><path class="g" d="M834.26,583.97v1.559a5.84,5.84,0,1,0,11.68,0V583.97a5.84,5.84,0,1,0-11.68,0Z" transform="translate(-817.361 -476.513)"/><path class="g" d="M840.1,684.8a5.858,5.858,0,0,0-5.84,5.84V692.2a5.84,5.84,0,0,0,11.68,0V690.64A5.855,5.855,0,0,0,840.1,684.8Z" transform="translate(-817.361 -556.707)"/><path class="l" d="M846.737,548.93v1.407a5.838,5.838,0,0,1-11.417,1.688Z" transform="translate(-818.158 -454.561)"/><path class="l" d="M846.737,602.27v1.407a5.838,5.838,0,0,1-11.417,1.688Z" transform="translate(-818.158 -494.661)"/><path class="l" d="M846.737,655.6v1.407A5.838,5.838,0,0,1,835.32,658.7Z" transform="translate(-818.158 -534.755)"/><path class="l" d="M846.737,708.93v1.407a5.838,5.838,0,0,1-11.417,1.688Z" transform="translate(-818.158 -574.848)"/><path class="g" d="M918.273,596.363l-.467.36a2.207,2.207,0,0,1-3.142-3.031,2.135,2.135,0,0,1,.447-.464l.467-.36a2.207,2.207,0,0,1,2.7,3.495Z" transform="translate(-877.5 -487.248)"/><path class="g" d="M899.482,605.163l-.464.355a2.206,2.206,0,1,0,2.7,3.492l.464-.357a2.207,2.207,0,1,0-2.7-3.495Z" transform="translate(-865.366 -496.487)"/><path class="g" d="M883.525,617.488l-.467.36a2.207,2.207,0,1,0,2.7,3.492l.467-.357a2.207,2.207,0,1,0-2.7-3.495Z" transform="translate(-853.367 -505.757)"/><path class="g" d="M867.712,629.687l-.464.357a2.207,2.207,0,1,0,2.7,3.495l.464-.36a2.207,2.207,0,1,0-2.7-3.492Z" transform="translate(-841.516 -514.9)"/><path class="l" d="M918.229,600.285l-.422.325a2.207,2.207,0,0,1-3.142-3.031Z" transform="translate(-877.5 -491.136)"/><path class="l" d="M902.352,612.6l-.419.323a2.207,2.207,0,0,1-3.132-3.028Z" transform="translate(-865.585 -500.39)"/><path class="l" d="M886.33,624.9l-.422.325a2.207,2.207,0,0,1-3.142-3.028Z" transform="translate(-853.522 -509.645)"/><path class="h" d="M804.88,205.318a6.62,6.62,0,1,1,0,13.239,6.619,6.619,0,1,1,0,13.238,6.62,6.62,0,0,1,0,13.235,6.62,6.62,0,1,1,0,13.239H772.953a6.62,6.62,0,0,1,0-13.239,6.619,6.619,0,1,1,0-13.238,6.62,6.62,0,1,1,0-13.235,6.62,6.62,0,0,1,0-13.239,6.619,6.619,0,1,1,0-13.238,6.62,6.62,0,1,1,0-13.235h1.459c.839-5.694,7.272-10.124,15.088-10.124s14.249,4.43,15.088,10.124h.29a6.619,6.619,0,1,1,0,13.238,6.62,6.62,0,0,1,0,13.235Z" transform="translate(-766.176 -168.72)"/><path class="l" d="M832.023,216.13a6.637,6.637,0,0,1-6.617,6.617H793.48l31.73-13.237h.2A6.637,6.637,0,0,1,832.023,216.13Z" transform="translate(-786.703 -199.386)"/><path class="l" d="M767.6,269.46a6.637,6.637,0,0,0,6.62,6.617h31.924l-31.73-13.237h-.194a6.639,6.639,0,0,0-6.62,6.62Z" transform="translate(-767.247 -239.479)"/><path class="l" d="M767.6,376.127a6.639,6.639,0,0,0,6.62,6.62h31.924l-31.73-13.237h-.194a6.637,6.637,0,0,0-6.62,6.617Z" transform="translate(-767.247 -319.673)"/><path class="l" d="M767.6,482.79a6.639,6.639,0,0,0,6.62,6.62h31.924l-31.73-13.239h-.194a6.639,6.639,0,0,0-6.62,6.62Z" transform="translate(-767.247 -399.86)"/><path class="l" d="M832.023,322.79a6.637,6.637,0,0,1-6.617,6.62H793.48l31.73-13.239h.2A6.637,6.637,0,0,1,832.023,322.79Z" transform="translate(-786.703 -279.572)"/><path class="l" d="M832.023,429.46a6.637,6.637,0,0,1-6.617,6.617H793.48l31.73-13.237h.2A6.637,6.637,0,0,1,832.023,429.46Z" transform="translate(-786.703 -359.767)"/><path class="h" d="M898.677,588.436l-10.514-5.659a3.677,3.677,0,0,0,.875-6.49,2.482,2.482,0,0,1,3.818-2.227l.482.248c1.286-1.737,4.187-2.045,6.761-.66s3.909,3.986,3.175,6.009l.1.052a3.712,3.712,0,0,0-.936,6.483,2.482,2.482,0,0,1-3.758,2.244Z" transform="translate(-857.022 -472.491)"/><path class="l" d="M915,600.116a2.482,2.482,0,0,1-3.353.993L901.14,595.45l12.795,1.266.065.035A2.482,2.482,0,0,1,915,600.116Z" transform="translate(-867.642 -489.534)"/><path class="l" d="M887,595.754A2.482,2.482,0,0,0,888,599.107l10.514,5.659-8.1-9.983-.062-.035A2.482,2.482,0,0,0,887,595.754Z" transform="translate(-856.789 -488.786)"/></g><ellipse class="g" cx="129.562" cy="5.709" rx="129.562" ry="5.709" transform="translate(0 147.095)"/><ellipse class="l" cx="28.047" cy="3.74" rx="28.047" ry="3.74" transform="translate(96.551 148.815)"/><path class="g" d="M547.96,374.624a5.709,5.709,0,0,1-6.766-6.225c.65-5.748,2.673-15.009,8.206-28.911,6.414-16.118,4.1-20.013-2.772-31.571-2.219-3.735-4.736-7.967-7.446-13.4-6.989-13.964-4.334-24.726-.884-31.276a31.778,31.778,0,0,1,9.5-11.018l5.416,8.96-.5.5c-.012,0,.248,0,.625.688a21.646,21.646,0,0,0-5.13,6.57c-3,6.014-2.606,12.907,1.179,20.469,2.534,5.068,4.937,9.112,7.056,12.678,3.807,6.4,6.813,11.462,7.808,17.848,1.03,6.61-.248,13.721-4.242,23.778-5.264,13.227-6.95,21.5-7.463,25.947a5.721,5.721,0,0,1-4.584,4.964Z" transform="translate(-421.418 -222.053)"/><path class="h" d="M409,22.971,431.971,0l23.195,22.971H439.4V40.537H424.763V23.083Z" transform="translate(-307.485)"/><ellipse class="l" cx="14.644" cy="1.953" rx="14.644" ry="1.953" transform="translate(160.091 148.552)"/><path class="g" d="M765.268,543.517a2.979,2.979,0,0,1-3.532-3.249c.338-3,1.395-7.836,4.284-15.093,3.348-8.417,2.139-10.449-1.447-16.486-1.159-1.948-2.482-4.16-3.894-7-3.644-7.29-2.259-12.907-.457-16.327a16.6,16.6,0,0,1,4.964-5.753l2.827,4.679-.263.248s.134,0,.328.36a11.288,11.288,0,0,0-2.681,3.43c-1.566,3.14-1.358,6.736.618,10.688,1.323,2.646,2.576,4.758,3.683,6.62,1.986,3.343,3.557,5.984,4.078,9.32.536,3.45-.127,7.163-2.216,12.41-2.748,6.905-3.629,11.226-3.9,13.547a2.978,2.978,0,0,1-2.393,2.594Z" transform="translate(-589.518 -393.004)"/><path class="h" d="M655.44,297.453l11.993-11.993,12.112,11.993h-8.23v9.171H663.67v-9.112Z" transform="translate(-492.758 -214.608)"/><ellipse class="l" cx="14.644" cy="1.953" rx="14.644" ry="1.953" transform="translate(59.817 148.552)"/><path class="g" d="M347.6,543.517a2.978,2.978,0,0,0,3.532-3.249c-.338-3-1.395-7.836-4.284-15.093-3.348-8.417-2.14-10.449,1.447-16.486,1.159-1.948,2.482-4.16,3.894-7,3.644-7.29,2.259-12.907.457-16.327a16.6,16.6,0,0,0-4.964-5.753l-2.827,4.679.263.248s-.134,0-.328.36a11.289,11.289,0,0,1,2.681,3.43c1.566,3.14,1.358,6.736-.618,10.688-1.323,2.646-2.576,4.758-3.683,6.62-1.986,3.343-3.557,5.984-4.078,9.32-.536,3.45.127,7.163,2.216,12.41,2.748,6.905,3.629,11.226,3.9,13.547a2.978,2.978,0,0,0,2.393,2.594Z" transform="translate(-274.155 -393.004)"/><path class="h" d="M275.546,297.453,263.552,285.46,251.44,297.453h8.23v9.171h7.645v-9.112Z" transform="translate(-189.032 -214.608)"/><path class="h" d="M920.417,702.092H909.873a3.3,3.3,0,0,0-1.955-5.444,2.187,2.187,0,0,1,1.955-3.3h.481c.276-1.881,2.4-3.346,4.979-3.348s4.716,1.459,4.986,3.338h.1A4.888,4.888,0,0,0,922.6,699.9a2.187,2.187,0,0,1-2.187,2.187Z" transform="translate(-701.7 -551.175)"/><path class="l" d="M929.455,705.644a2.189,2.189,0,0,1-2.184,2.187H916.73L927.2,703.45h.065A2.192,2.192,0,0,1,929.455,705.644Z" transform="translate(-708.554 -561.287)"/><path class="l" d="M908.17,723.407a2.192,2.192,0,0,0,2.187,2.184H920.9l-10.482-4.361h-.057A2.194,2.194,0,0,0,908.17,723.407Z" transform="translate(-702.119 -574.654)"/><path class="h" d="M679.115,707.413h-5.984a2.775,2.775,0,0,0-1.241-3.723,1.241,1.241,0,0,1,1.241-1.241h.276a3.056,3.056,0,0,1,5.654-.005h.055a2.775,2.775,0,0,0,1.241,3.723,1.241,1.241,0,0,1-1.241,1.241Z" transform="translate(-524.485 -559.106)"/><path class="l" d="M684.115,709.441a1.241,1.241,0,0,1-1.241,1.241H676.89l5.957-2.482h.027A1.241,1.241,0,0,1,684.115,709.441Z" transform="translate(-528.244 -564.858)"/><path class="l" d="M672.05,719.471a1.241,1.241,0,0,0,1.241,1.241h5.982l-5.957-2.482h-.037a1.241,1.241,0,0,0-1.229,1.241Z" transform="translate(-524.605 -572.398)"/><path class="h" d="M202.918,712.635H190.259a3.96,3.96,0,0,0-2.339-6.532,2.624,2.624,0,0,1,2.339-3.957h.576c.33-2.256,2.879-4.013,5.974-4.016s5.647,1.75,5.982,4h.114A5.938,5.938,0,0,0,205.448,710a2.623,2.623,0,0,1-2.543,2.622Z" transform="translate(-160.363 -557.287)"/><path class="l" d="M213.727,716.893a2.629,2.629,0,0,1-2.619,2.624H198.45l12.564-5.257h.077A2.633,2.633,0,0,1,213.727,716.893Z" transform="translate(-168.554 -569.414)"/><path class="l" d="M188.22,738.154a2.631,2.631,0,0,0,2.626,2.619H203.5l-12.576-5.232h-.077A2.633,2.633,0,0,0,188.22,738.154Z" transform="translate(-160.863 -585.412)"/><path class="i" d="M308.358,263.464a5.044,5.044,0,0,0-2.926.313,4.286,4.286,0,0,1-3.5,0,4.914,4.914,0,0,0-4.115.079,2.554,2.554,0,0,1-1.184.3c-1.668,0-3.055-1.68-3.343-3.9a3.212,3.212,0,0,0,.834-.9,4.69,4.69,0,0,1,8.369-.027,3.226,3.226,0,0,0,2.77,1.521h.045A3.515,3.515,0,0,1,308.358,263.464Z" transform="translate(-239.854 -225.474)"/><path class="i" d="M313.434,237.75l-2.7,1.71,1.636-2.978a2.653,2.653,0,0,0-1.631-.583H310.7a2.979,2.979,0,0,1-.558-.04l-.916.578.392-.712a3.259,3.259,0,0,1-1.6-1.214l-1.641,1.04,1.033-1.879a4.79,4.79,0,0,0-3.663-1.852,5.01,5.01,0,0,0-4.195,2.586,3.14,3.14,0,0,1-2.772,1.489H296.7c-1.876,0-3.4,2.13-3.4,4.756s1.524,4.756,3.4,4.756a2.524,2.524,0,0,0,1.184-.3,4.914,4.914,0,0,1,4.115-.079,4.344,4.344,0,0,0,1.76.377,4.292,4.292,0,0,0,1.737-.37,4.912,4.912,0,0,1,4.078.079,2.542,2.542,0,0,0,1.172.29c1.879,0,3.4-2.13,3.4-4.756A6.044,6.044,0,0,0,313.434,237.75Z" transform="translate(-239.862 -206.717)"/><path class="i" d="M210.62,373.464a5.043,5.043,0,0,1,2.914.313,4.279,4.279,0,0,0,3.5,0,4.914,4.914,0,0,1,4.115.079,2.561,2.561,0,0,0,1.184.3c1.668,0,3.058-1.68,3.346-3.9a3.174,3.174,0,0,1-.834-.9,4.69,4.69,0,0,0-8.369-.027,3.227,3.227,0,0,1-2.78,1.519h-.042A3.491,3.491,0,0,0,210.62,373.464Z" transform="translate(-177.703 -308.172)"/><path class="i" d="M187.989,347.742l2.7,1.71-1.638-2.978a2.658,2.658,0,0,1,1.631-.583h.045a2.979,2.979,0,0,0,.558-.04l.913.578-.392-.712a3.264,3.264,0,0,0,1.6-1.214l1.636,1.037L194,343.662a4.794,4.794,0,0,1,3.666-1.852,5.026,5.026,0,0,1,4.195,2.586,3.137,3.137,0,0,0,2.772,1.489h.089c1.879,0,3.4,2.13,3.4,4.756s-1.521,4.756-3.4,4.756a2.539,2.539,0,0,1-1.184-.3,4.915,4.915,0,0,0-4.115-.079,4.33,4.33,0,0,1-1.757.377,4.274,4.274,0,0,1-1.737-.37,4.917,4.917,0,0,0-4.08.079,2.534,2.534,0,0,1-1.172.29c-1.876,0-3.4-2.13-3.4-4.756A6.044,6.044,0,0,1,187.989,347.742Z" transform="translate(-160.156 -289.407)"/><ellipse class="b" cx="28.057" cy="28.108" rx="28.057" ry="28.108" transform="translate(99.572 129.771)"/><path class="h" d="M571.478,363.423a33.532,33.532,0,1,0,33.532,33.532A33.532,33.532,0,0,0,571.478,363.423Zm-6.884,51.41-17.185-17.185,4.82-4.82,12.381,12.381,26.132-26.132,4.82,4.82-30.969,30.937Z" transform="translate(-443.849 -238.443)"/></g></g></g></svg>