<svg xmlns="http://www.w3.org/2000/svg" width="72" height="56" viewBox="0 0 72 56"><defs><style>.a{fill:#474f77;stroke-linecap:round;stroke-linejoin:round;}.b{fill:rgba(246,75,93,0.8);}.c,.d{stroke:none;}.d{fill:#474f77;}</style></defs><g transform="translate(-13.779 0)"><g class="a"><path class="c" d="M 57.24921798706055 55.75000762939453 L 18.99964904785156 55.75000762939453 C 16.25880813598633 55.75000762939453 14.02896881103516 53.53517913818359 14.02896881103516 50.81278991699219 L 14.02896881103516 13.4132194519043 C 14.02896881103516 12.94796943664551 14.4099292755127 12.5694694519043 14.87819862365723 12.5694694519043 L 21.65143966674805 12.5694694519043 L 21.90143966674805 12.5694694519043 L 21.90143966674805 12.3194694519043 L 21.90143966674805 9.608719825744629 C 21.90143966674805 4.448319435119629 26.14244842529297 0.2500195503234863 31.35534858703613 0.2500195503234863 C 32.52275848388672 0.2500195503234863 33.66297912597656 0.4591495394706726 34.74432754516602 0.8715895414352417 L 34.83341979980469 0.9055695533752441 L 34.92250823974609 0.8715895414352417 C 36.00384902954102 0.4591395258903503 37.14406967163086 0.2500195503234863 38.31148910522461 0.2500195503234863 C 43.52433776855469 0.2500195503234863 47.76538848876953 4.448319435119629 47.76549911499023 9.608729362487793 L 47.76549911499023 12.3194694519043 L 47.76549911499023 12.5694694519043 L 48.01549911499023 12.5694694519043 L 54.78863906860352 12.5694694519043 C 55.25690841674805 12.5694694519043 55.63786697387695 12.94796943664551 55.63786697387695 13.4132194519043 L 55.63786697387695 25.96377944946289 C 55.63786697387695 26.42902946472168 55.25690841674805 26.80752944946289 54.78863906860352 26.80752944946289 C 54.32036972045898 26.80752944946289 53.93939971923828 26.42902946472168 53.93939971923828 25.96377944946289 L 53.93939971923828 14.5069694519043 L 53.93939971923828 14.2569694519043 L 53.68939971923828 14.2569694519043 L 48.01549911499023 14.2569694519043 L 47.76549911499023 14.2569694519043 L 47.76549911499023 14.5069694519043 L 47.76549911499023 20.11636924743652 C 47.76549911499023 20.58161926269531 47.38454055786133 20.96011924743652 46.91627883911133 20.96011924743652 C 46.4480094909668 20.96011924743652 46.06703948974609 20.58161926269531 46.06703948974609 20.11636924743652 L 46.06703948974609 14.5069694519043 L 46.06703948974609 14.2569694519043 L 45.81703948974609 14.2569694519043 L 30.80605888366699 14.2569694519043 L 30.55605888366699 14.2569694519043 L 30.55605888366699 14.5069694519043 L 30.55605888366699 20.11636924743652 C 30.55605888366699 20.58161926269531 30.17509841918945 20.96011924743652 29.70682907104492 20.96011924743652 C 29.23855972290039 20.96011924743652 28.85759925842285 20.58161926269531 28.85759925842285 20.11636924743652 L 28.85759925842285 14.5069694519043 L 28.85759925842285 14.2569694519043 L 28.60759925842285 14.2569694519043 L 22.75067901611328 14.2569694519043 L 22.50067901611328 14.2569694519043 L 22.50067901611328 14.5069694519043 L 22.50067901611328 53.81250762939453 L 22.50067901611328 54.06250762939453 L 22.75067901611328 54.06250762939453 L 54.88467407226562 54.06250762939453 C 55.38848876953125 54.83520889282227 56.37675094604492 55.38811111450195 57.24921798706055 55.75000762939453 Z M 15.7274284362793 14.2569694519043 L 15.7274284362793 14.5069694519043 L 15.7274284362793 50.81278991699219 C 15.7274284362793 52.60469055175781 17.19533920288086 54.06250762939453 18.99964904785156 54.06250762939453 L 20.55209922790527 54.06250762939453 L 20.80209922790527 54.06250762939453 L 20.80209922790527 53.81250762939453 L 20.80209922790527 14.5069694519043 L 20.80209922790527 14.2569694519043 L 20.55209922790527 14.2569694519043 L 15.9774284362793 14.2569694519043 L 15.7274284362793 14.2569694519043 Z M 38.31148910522461 1.937519550323486 C 38.05183792114258 1.937519550323486 37.7900505065918 1.95043957233429 37.53337860107422 1.975919485092163 L 36.93560791015625 2.035269498825073 L 37.39899063110352 2.417549610137939 C 39.56624984741211 4.205479621887207 40.80923843383789 6.826559543609619 40.80923843383789 9.608709335327148 L 40.80923843383789 12.31945991516113 L 40.80923843383789 12.56945991516113 L 41.05923843383789 12.56945991516113 L 45.81692886352539 12.56945991516113 L 46.06692886352539 12.56945991516113 L 46.06692886352539 12.31945991516113 L 46.06692886352539 9.608709335327148 C 46.06692886352539 5.378799438476562 42.58784866333008 1.937519550323486 38.31148910522461 1.937519550323486 Z M 34.83341979980469 2.751839637756348 L 34.71821975708008 2.811659574508667 C 32.15090942382812 4.144659519195557 30.55605888366699 6.749139308929443 30.55605888366699 9.608709335327148 L 30.55605888366699 12.31945991516113 L 30.55605888366699 12.56945991516113 L 30.80605888366699 12.56945991516113 L 38.86077880859375 12.56945991516113 L 39.11077880859375 12.56945991516113 L 39.11077880859375 12.31945991516113 L 39.11077880859375 9.608709335327148 C 39.11077880859375 6.749149322509766 37.51593017578125 4.144669532775879 34.9486198425293 2.811659574508667 L 34.83341979980469 2.751839637756348 Z M 31.35534858703613 1.937519550323486 C 27.0789794921875 1.937519550323486 23.59989929199219 5.378799438476562 23.59989929199219 9.608709335327148 L 23.59989929199219 12.31935977935791 L 23.59989929199219 12.56935977935791 L 23.84989929199219 12.56935977935791 L 28.60759925842285 12.56935977935791 L 28.85759925842285 12.56935977935791 L 28.85759925842285 12.31935977935791 L 28.85759925842285 9.608609199523926 C 28.85759925842285 6.826559543609619 30.10058975219727 4.205479621887207 32.26786041259766 2.417429447174072 L 32.73148727416992 2.034919500350952 L 32.13335037231445 1.975799560546875 C 31.87633895874023 1.950399518013 31.61457824707031 1.937519550323486 31.35534858703613 1.937519550323486 Z"/><path class="d" d="M 56.16953659057617 55.50000762939453 C 55.61927795410156 55.18463897705078 55.10243225097656 54.79130172729492 54.75373077392578 54.31250762939453 L 22.75067901611328 54.31250762939453 C 22.47453880310059 54.31250762939453 22.25067901611328 54.08864974975586 22.25067901611328 53.81250762939453 L 22.25067901611328 14.5069694519043 C 22.25067901611328 14.2308292388916 22.47453880310059 14.0069694519043 22.75067901611328 14.0069694519043 L 28.60759925842285 14.0069694519043 C 28.88373947143555 14.0069694519043 29.10759925842285 14.2308292388916 29.10759925842285 14.5069694519043 L 29.10759925842285 20.11636924743652 C 29.10759925842285 20.44375991821289 29.37640953063965 20.71011924743652 29.70682907104492 20.71011924743652 C 30.0372486114502 20.71011924743652 30.30605888366699 20.44375991821289 30.30605888366699 20.11636924743652 L 30.30605888366699 14.5069694519043 C 30.30605888366699 14.2308292388916 30.5299186706543 14.0069694519043 30.80605888366699 14.0069694519043 L 45.81703948974609 14.0069694519043 C 46.09317779541016 14.0069694519043 46.31703948974609 14.2308292388916 46.31703948974609 14.5069694519043 L 46.31703948974609 20.11636924743652 C 46.31703948974609 20.44375991821289 46.58585739135742 20.71011924743652 46.91627883911133 20.71011924743652 C 47.24668884277344 20.71011924743652 47.51549911499023 20.44375991821289 47.51549911499023 20.11636924743652 L 47.51549911499023 14.5069694519043 C 47.51549911499023 14.2308292388916 47.73935699462891 14.0069694519043 48.01549911499023 14.0069694519043 L 53.68939971923828 14.0069694519043 C 53.96553802490234 14.0069694519043 54.18939971923828 14.2308292388916 54.18939971923828 14.5069694519043 L 54.18939971923828 25.96377944946289 C 54.18939971923828 26.29117012023926 54.45821762084961 26.55752944946289 54.78863906860352 26.55752944946289 C 55.11906051635742 26.55752944946289 55.38786697387695 26.29117012023926 55.38786697387695 25.96377944946289 L 55.38786697387695 13.4132194519043 C 55.38786697387695 13.08582973480225 55.11906051635742 12.8194694519043 54.78863906860352 12.8194694519043 L 48.01549911499023 12.8194694519043 C 47.73935699462891 12.8194694519043 47.51549911499023 12.59560966491699 47.51549911499023 12.3194694519043 L 47.51549911499023 9.608729362487793 C 47.51539993286133 4.586169719696045 43.38648986816406 0.5000195503234863 38.31148910522461 0.5000195503234863 C 37.17462921142578 0.5000195503234863 36.06438827514648 0.7036195397377014 35.0116081237793 1.105169534683228 C 34.89684677124023 1.148939609527588 34.76998901367188 1.148939609527588 34.65522766113281 1.105169534683228 C 33.60243988037109 0.7036195397377014 32.4921989440918 0.5000195503234863 31.35534858703613 0.5000195503234863 C 26.28029823303223 0.5000195503234863 22.15143966674805 4.586169719696045 22.15143966674805 9.608719825744629 L 22.15143966674805 12.3194694519043 C 22.15143966674805 12.59560966491699 21.92757797241211 12.8194694519043 21.65143966674805 12.8194694519043 L 14.87819862365723 12.8194694519043 C 14.54777908325195 12.8194694519043 14.27896881103516 13.08582973480225 14.27896881103516 13.4132194519043 L 14.27896881103516 50.81278991699219 C 14.27896881103516 53.39733123779297 16.39665794372559 55.50000762939453 18.99964904785156 55.50000762939453 L 56.16953659057617 55.50000762939453 M 15.9774284362793 14.0069694519043 L 20.55209922790527 14.0069694519043 C 20.82823944091797 14.0069694519043 21.05209922790527 14.2308292388916 21.05209922790527 14.5069694519043 L 21.05209922790527 53.8046989440918 C 21.05213928222656 53.80730056762695 21.05215835571289 53.80989837646484 21.05215835571289 53.81250762939453 C 21.05215835571289 54.08864974975586 20.82823944091797 54.31250762939453 20.55209922790527 54.31250762939453 L 18.99964904785156 54.31250762939453 C 17.0574893951416 54.31250762939453 15.4774284362793 52.74253845214844 15.4774284362793 50.81278991699219 L 15.4774284362793 14.5069694519043 C 15.4774284362793 14.2308292388916 15.70128917694092 14.0069694519043 15.9774284362793 14.0069694519043 M 38.31148910522461 1.687519550323486 C 42.72570037841797 1.687519550323486 46.31692886352539 5.240949630737305 46.31692886352539 9.608709335327148 L 46.31692886352539 12.31945991516113 C 46.31692886352539 12.59559917449951 46.09306716918945 12.81945991516113 45.81692886352539 12.81945991516113 L 41.05923843383789 12.81945991516113 C 40.78310012817383 12.81945991516113 40.55923843383789 12.59559917449951 40.55923843383789 12.31945991516113 L 40.55923843383789 9.608709335327148 C 40.55923843383789 6.901449680328369 39.34938812255859 4.350659370422363 37.23988723754883 2.610389471054077 C 37.08412933349609 2.481889486312866 37.02095031738281 2.272309541702271 37.07973861694336 2.079129457473755 C 37.13852691650391 1.885949492454529 37.3077392578125 1.74709951877594 37.5086784362793 1.727149486541748 C 37.77351760864258 1.700849533081055 38.04362869262695 1.687519550323486 38.31148910522461 1.687519550323486 M 34.83341979980469 2.53352952003479 C 34.91250991821289 2.53352952003479 34.99160385131836 2.552279472351074 35.06382751464844 2.589779615402222 C 37.71427917480469 3.965969562530518 39.36077880859375 6.655459403991699 39.36077880859375 9.608709335327148 L 39.36077880859375 12.31945991516113 C 39.36077880859375 12.59559917449951 39.13691711425781 12.81945991516113 38.86077880859375 12.81945991516113 L 30.80605888366699 12.81945991516113 C 30.5299186706543 12.81945991516113 30.30605888366699 12.59559917449951 30.30605888366699 12.31945991516113 L 30.30605888366699 9.608709335327148 C 30.30605888366699 6.655459403991699 31.95255851745605 3.965959548950195 34.60300827026367 2.589779615402222 C 34.67523193359375 2.552279472351074 34.75432586669922 2.53352952003479 34.83341979980469 2.53352952003479 M 31.35534858703613 1.687519550323486 C 31.62275886535645 1.687519550323486 31.89278793334961 1.700809478759766 32.15793991088867 1.727009534835815 C 32.35891723632812 1.746879577636719 32.52821731567383 1.885709524154663 32.58707046508789 2.078909635543823 C 32.64590835571289 2.272109508514404 32.58273696899414 2.481739521026611 32.42695999145508 2.610269546508789 C 30.31745910644531 4.350659370422363 29.10759925842285 6.901449680328369 29.10759925842285 9.608609199523926 L 29.10759925842285 12.31935977935791 C 29.10759925842285 12.59549999237061 28.88373947143555 12.81935977935791 28.60759925842285 12.81935977935791 L 23.84989929199219 12.81935977935791 C 23.57375907897949 12.81935977935791 23.34989929199219 12.59549999237061 23.34989929199219 12.31935977935791 L 23.34989929199219 9.608709335327148 C 23.34989929199219 5.240949630737305 26.94112968444824 1.687519550323486 31.35534858703613 1.687519550323486 M 58.77896881103516 56.00000762939453 L 18.99964904785156 56.00000762939453 C 16.1209888458252 56.00000762939453 13.77896881103516 53.67293930053711 13.77896881103516 50.81278991699219 L 13.77896881103516 13.4132194519043 C 13.77896881103516 12.80913925170898 14.27119922637939 12.3194694519043 14.87819862365723 12.3194694519043 L 21.65143966674805 12.3194694519043 L 21.65143966674805 9.608719825744629 C 21.65143966674805 4.310379505157471 26.00450897216797 1.953674291144125e-05 31.35534858703613 1.953674291144125e-05 C 32.58044052124023 1.953674291144125e-05 33.75320053100586 0.2259895354509354 34.83341979980469 0.6379995346069336 C 35.91362762451172 0.2259895354509354 37.08639907836914 1.953674291144125e-05 38.31148910522461 1.953674291144125e-05 C 43.66233062744141 1.953674291144125e-05 48.01538848876953 4.310379505157471 48.01549911499023 9.608719825744629 L 48.01549911499023 12.3194694519043 L 54.78863906860352 12.3194694519043 C 55.39563751220703 12.3194694519043 55.88786697387695 12.80913925170898 55.88786697387695 13.4132194519043 L 55.88786697387695 25.96377944946289 C 55.88786697387695 26.56785011291504 55.39563751220703 27.05752944946289 54.78863906860352 27.05752944946289 C 54.1815299987793 27.05752944946289 53.68939971923828 26.56785011291504 53.68939971923828 25.96377944946289 L 53.68939971923828 14.5069694519043 L 48.01549911499023 14.5069694519043 L 48.01549911499023 20.11636924743652 C 48.01549911499023 20.72044944763184 47.52326965332031 21.21011924743652 46.91627883911133 21.21011924743652 C 46.30928039550781 21.21011924743652 45.81703948974609 20.72044944763184 45.81703948974609 20.11636924743652 L 45.81703948974609 14.5069694519043 L 30.80605888366699 14.5069694519043 L 30.80605888366699 20.11636924743652 C 30.80605888366699 20.72044944763184 30.31381797790527 21.21011924743652 29.70682907104492 21.21011924743652 C 29.09982872009277 21.21011924743652 28.60759925842285 20.72044944763184 28.60759925842285 20.11636924743652 L 28.60759925842285 14.5069694519043 L 22.75067901611328 14.5069694519043 L 22.75067901611328 53.81250762939453 L 55.02510070800781 53.81250762939453 C 55.76212692260742 55.11790084838867 58.1171875 55.82812881469727 58.77896881103516 56.00000762939453 Z M 20.55209922790527 53.81250762939453 L 20.55220794677734 53.81250762939453 L 20.55209922790527 53.81250762939453 L 20.55209922790527 14.5069694519043 L 15.9774284362793 14.5069694519043 L 15.9774284362793 50.81278991699219 C 15.9774284362793 52.46686935424805 17.33321952819824 53.81250762939453 18.99964904785156 53.81250762939453 L 20.55209922790527 53.81250762939453 Z M 38.31148910522461 2.187519550323486 C 38.0572395324707 2.187519550323486 37.80595779418945 2.200089454650879 37.55807876586914 2.2246994972229 C 39.69619750976562 3.988589525222778 41.05923843383789 6.643999576568604 41.05923843383789 9.608709335327148 L 41.05923843383789 12.31945991516113 L 45.81692886352539 12.31945991516113 L 45.81692886352539 9.608709335327148 C 45.81692886352539 5.516669750213623 42.44998931884766 2.187519550323486 38.31148910522461 2.187519550323486 Z M 34.83341979980469 3.03352952003479 C 32.44126892089844 4.275589466094971 30.80605888366699 6.756869316101074 30.80605888366699 9.608709335327148 L 30.80605888366699 12.31945991516113 L 38.86077880859375 12.31945991516113 L 38.86077880859375 9.608709335327148 C 38.86077880859375 6.756869316101074 37.22555923461914 4.275589466094971 34.83341979980469 3.03352952003479 Z M 31.35534858703613 2.187519550323486 C 27.21684837341309 2.187519550323486 23.84989929199219 5.516669750213623 23.84989929199219 9.608709335327148 L 23.84989929199219 12.31935977935791 L 28.60759925842285 12.31935977935791 L 28.60759925842285 9.608609199523926 C 28.60759925842285 6.643889427185059 29.97063827514648 3.988589525222778 32.10875701904297 2.224589586257935 C 31.86087799072266 2.200089454650879 31.60959815979004 2.187519550323486 31.35534858703613 2.187519550323486 Z"/></g><g transform="translate(53.779 16)"><path class="b" d="M300.406,322.857H279.578a5.739,5.739,0,0,1-5.586-5.88V289.421h32v27.556A5.739,5.739,0,0,1,300.406,322.857Z" transform="translate(-273.992 -282.857)"/><g class="a" transform="translate(-322.894 -230.799)"><path class="c" d="M 343.6858825683594 243.7782592773438 C 343.206298828125 243.7782592773438 342.8161010742188 243.3880767822266 342.8161010742188 242.9084777832031 L 342.8161010742188 236.7009582519531 C 342.8161010742188 234.5436706542969 341.0451354980469 232.78857421875 338.8683471679688 232.78857421875 C 336.6915588378906 232.78857421875 334.9205932617188 234.5436706542969 334.9205932617188 236.7009582519531 L 334.9205932617188 242.9084777832031 C 334.9205932617188 243.3880767822266 334.5303955078125 243.7782592773438 334.05078125 243.7782592773438 C 333.5711669921875 243.7782592773438 333.1809997558594 243.3880767822266 333.1809997558594 242.9084777832031 L 333.1809997558594 236.7009582519531 C 333.1809997558594 233.58447265625 335.7323303222656 231.0490112304688 338.8683471679688 231.0490112304688 C 342.0043334960938 231.0490112304688 344.5556640625 233.58447265625 344.5556640625 236.7009582519531 L 344.5556640625 242.9084777832031 C 344.5556640625 243.3880767822266 344.1654968261719 243.7782592773438 343.6858825683594 243.7782592773438 Z"/><path class="d" d="M 343.6858825683594 243.5282592773438 C 344.0276489257812 243.5282592773438 344.3056640625 243.2502288818359 344.3056640625 242.9084777832031 L 344.3056640625 236.7009582519531 C 344.3056640625 233.7223205566406 341.8664855957031 231.2990112304688 338.8683471679688 231.2990112304688 C 335.8701782226562 231.2990112304688 333.4309997558594 233.7223205566406 333.4309997558594 236.7009582519531 L 333.4309997558594 242.9084777832031 C 333.4309997558594 243.2502288818359 333.7090148925781 243.5282592773438 334.05078125 243.5282592773438 C 334.3925476074219 243.5282592773438 334.6705932617188 243.2502288818359 334.6705932617188 242.9084777832031 L 334.6705932617188 236.7009582519531 C 334.6705932617188 234.4058227539062 336.5537109375 232.53857421875 338.8683471679688 232.53857421875 C 341.1829833984375 232.53857421875 343.0661010742188 234.4058227539062 343.0661010742188 236.7009582519531 L 343.0661010742188 242.9084777832031 C 343.0661010742188 243.2502288818359 343.3441467285156 243.5282592773438 343.6858825683594 243.5282592773438 M 343.6858825683594 244.0282592773438 C 343.0675354003906 244.0282592773438 342.5661010742188 243.5268249511719 342.5661010742188 242.9084777832031 L 342.5661010742188 236.7009582519531 C 342.5661010742188 234.6815338134766 340.9072265625 233.03857421875 338.8683471679688 233.03857421875 C 336.8293151855469 233.03857421875 335.1705932617188 234.6815338134766 335.1705932617188 236.7009582519531 L 335.1705932617188 242.9084777832031 C 335.1705932617188 243.5268249511719 334.6691284179688 244.0282592773438 334.05078125 244.0282592773438 C 333.4323425292969 244.0282592773438 332.9309997558594 243.5268249511719 332.9309997558594 242.9084777832031 L 332.9309997558594 236.7009582519531 C 332.9309997558594 233.4465179443359 335.5945434570312 230.7990112304688 338.8683471679688 230.7990112304688 C 342.1421508789062 230.7990112304688 344.8056640625 233.4466247558594 344.8056640625 236.7009582519531 L 344.8056640625 242.9084777832031 C 344.8056640625 243.5269470214844 344.3042297363281 244.0282592773438 343.6858825683594 244.0282592773438 Z"/></g></g></g></svg>