<svg xmlns="http://www.w3.org/2000/svg" width="80" height="80" viewBox="0 0 80 80"><defs><style>.a{fill:rgba(246,75,93,0.05);}.b{fill:rgba(26,36,85,0.8);}.c{fill:#f87885;}</style></defs><g transform="translate(0 -50.868)"><rect class="a" width="80" height="80" rx="8" transform="translate(0 50.868)"/><g transform="translate(11 66.869)"><g transform="translate(0 0)"><path class="b" d="M398.428,244.772a1.126,1.126,0,0,0,1.592,0L402.6,242.2a1.126,1.126,0,0,0,0-1.592l-2.575-2.575a1.126,1.126,0,1,0-1.592,1.592l1.779,1.779-1.779,1.779A1.126,1.126,0,0,0,398.428,244.772Z" transform="translate(-352.919 -215.741)"/><path class="b" d="M75.519,238.031a1.126,1.126,0,0,0-1.592,0l-2.575,2.575a1.126,1.126,0,0,0,0,1.592l2.575,2.575a1.126,1.126,0,1,0,1.592-1.592L73.74,241.4l1.779-1.779a1.126,1.126,0,0,0,0-1.592Z" transform="translate(-63.028 -215.741)"/><path class="b" d="M56.867,82.278H55.8V49.5a4.629,4.629,0,0,0-4.616-4.632H6.812A4.629,4.629,0,0,0,2.2,49.5V82.278H1.133A1.135,1.135,0,0,0,0,83.415v4.252a5.2,5.2,0,0,0,5.184,5.2H52.816A5.2,5.2,0,0,0,58,87.667V83.415A1.135,1.135,0,0,0,56.867,82.278ZM6.812,47.141H51.188a2.357,2.357,0,0,1,2.35,2.358v3.164H4.461V49.5a2.357,2.357,0,0,1,2.35-2.358Zm-2.35,7.8H53.539v27.34H37.2a1.135,1.135,0,0,0-1.133,1.137,1.316,1.316,0,0,1-1.312,1.317H23.245a1.316,1.316,0,0,1-1.312-1.317A1.135,1.135,0,0,0,20.8,82.278H4.461ZM55.734,87.667a2.927,2.927,0,0,1-2.918,2.928H5.184a2.927,2.927,0,0,1-2.918-2.928V84.551H19.851A3.586,3.586,0,0,0,23.245,87H34.755a3.586,3.586,0,0,0,3.394-2.453H55.734Z" transform="translate(0 -44.868)"/><path class="b" d="M241.509,80.23h1.264a1.126,1.126,0,1,0,0-2.251h-1.264a1.126,1.126,0,0,0,0,2.251Z" transform="translate(-213.141 -74.252)"/></g><g transform="translate(17.478 14.166)"><path class="c" d="M172.294,168.63h-3.838a2.349,2.349,0,0,1-2.349,2.349h-1.893a2.349,2.349,0,0,1-2.349-2.349h-3.838a4.6,4.6,0,0,0-4.388,4.388V179.6H158.2v8.7h13.916v-8.7h4.564v-6.584A4.472,4.472,0,0,0,172.294,168.63Z" transform="translate(-153.639 -168.63)"/></g></g></g></svg>