<svg id="wallet_img" data-name="wallet img" xmlns="http://www.w3.org/2000/svg" width="416" height="272" viewBox="0 0 416 272">
  <rect id="Rectangle_2035" data-name="Rectangle 2035" width="416" height="3.058" transform="translate(0 268.942)" fill="#85848b"/>
  <path id="Path_4736" data-name="Path 4736" d="M827.062,651.138c0,2.353-13.713,9.211-30,9.211s-28.98-6.858-28.98-9.211,13.2-1.595,29.507-1.595S827.062,648.781,827.062,651.138Z" transform="translate(-497.396 -436.459)" fill="#504f60"/>
  <path id="Path_4737" data-name="Path 4737" d="M827.062,653.72c0,2.353-13.713,9.211-30,9.211s-28.98-6.858-28.98-9.211" transform="translate(-497.396 -439.039)" opacity="0.2"/>
  <path id="Path_4738" data-name="Path 4738" d="M502.9,536.035a18.206,18.206,0,0,0,7.919-.267c.4-.124.837-.4.8-.8a.964.964,0,0,0-.18-.4,24.634,24.634,0,0,1-2.392-4.558.4.4,0,0,0-.148-.207.374.374,0,0,0-.255,0c-1.168.307-2.177,1.06-3.337,1.384a4.749,4.749,0,0,1-1.818.136c-.526-.06-1.244-.494-1.723-.439C502.031,532.629,502.693,534.256,502.9,536.035Z" transform="translate(-336.388 -364.799)" fill="#ff4b4b"/>
  <path id="Path_4739" data-name="Path 4739" d="M625.623,520.753a13.835,13.835,0,0,0,4.577-4.3.746.746,0,0,0,.124-.371.766.766,0,0,0-.147-.359,14.814,14.814,0,0,0-3.72-4.015,10.853,10.853,0,0,0-2.074,1.914c-.438.462-1.651,1.2-1.663,1.9,0,.4.463.861.678,1.2.291.431.566.869.829,1.316A15.605,15.605,0,0,1,625.623,520.753Z" transform="translate(-409.405 -353.962)" fill="#ff4b4b"/>
  <path id="Path_4740" data-name="Path 4740" d="M489.861,545.665a1.774,1.774,0,0,1-.319,1.156,1.567,1.567,0,0,1-.67.4c-3.7,1.324-7.975-.327-11.663.977-.758.267-1.475.654-2.237.909a12.169,12.169,0,0,1-2.791.494c-1.3.124-2.616.2-3.924.239a9.436,9.436,0,0,1-2.959-.259,3.553,3.553,0,0,1-2.269-1.8,1.726,1.726,0,0,1-.112-1.28,1.379,1.379,0,0,1,.243-.4,3.5,3.5,0,0,1,.869-.706l1.36-.877a9.124,9.124,0,0,1,2.062-1.093c.538-.175,1.108-.251,1.655-.4,1.91-.558,3.369-2.073,4.725-3.529l1.85-1.974a1.862,1.862,0,0,1,.642-.514,1.778,1.778,0,0,1,.8-.076,10.662,10.662,0,0,1,5.044,1.69,6.531,6.531,0,0,0,1.244.734,4.441,4.441,0,0,0,3.477-.431c.474-.255.371-.4.57-.853s.686-.746,1.108-.331a1.173,1.173,0,0,1,.263.5,14.146,14.146,0,0,1,.247,4.111,1.813,1.813,0,0,0,.08.638,3.613,3.613,0,0,0,.363.59,1.325,1.325,0,0,1,.076.152,4.055,4.055,0,0,1,.267,1.926Z" transform="translate(-312.934 -369.053)" fill="#514e7f"/>
  <path id="Path_4741" data-name="Path 4741" d="M489.861,555.928a1.774,1.774,0,0,1-.319,1.156,1.566,1.566,0,0,1-.67.4c-3.7,1.324-7.975-.327-11.663.977-.758.267-1.475.654-2.237.909a12.172,12.172,0,0,1-2.791.494c-1.3.124-2.616.2-3.924.239a9.439,9.439,0,0,1-2.959-.259,3.553,3.553,0,0,1-2.269-1.8,1.726,1.726,0,0,1-.112-1.28,1.379,1.379,0,0,1,.243-.4c.215.451.371,1.049.506,1.264a2.588,2.588,0,0,0,1.731,1.248,4.3,4.3,0,0,0,1.595-.2c3.349-.829,6.91-.841,10.128-2.1a23.411,23.411,0,0,1,3.318-1.276,26.08,26.08,0,0,1,3.589-.291c1.89-.152,3.72-.722,5.582-1.021a4.056,4.056,0,0,1,.251,1.938Z" transform="translate(-312.934 -379.303)" fill="#464353"/>
  <path id="Path_4742" data-name="Path 4742" d="M619.659,524.153a6.72,6.72,0,0,1-2.042,3.636,23.784,23.784,0,0,0-2.859,3.126c-.957,1.463-1.388,3.278-2.632,4.514a7.212,7.212,0,0,1-1.595,1.137,11.127,11.127,0,0,1-2.054.945,15.322,15.322,0,0,1-5.8.315,5.219,5.219,0,0,1-1.842-.355,5.546,5.546,0,0,1-.766-.471,3.654,3.654,0,0,1-1.2-1.2,1.2,1.2,0,0,1-.116-.869,2.041,2.041,0,0,1,.554-.845,13.156,13.156,0,0,1,1.4-1.264,8.406,8.406,0,0,0,1.826-1.6,5.154,5.154,0,0,0,.706-1.595,14.162,14.162,0,0,0,.514-3.05,9.662,9.662,0,0,1,.211-2.042c.3-1.053,1.077-1.994.989-3.082a.77.77,0,0,1,.04-.467.65.65,0,0,1,.367-.227,6.5,6.5,0,0,1,1.906-.443,2.221,2.221,0,0,1,1.77.694c.271.327.451.8.849.925a1.351,1.351,0,0,0,.606.024,5.079,5.079,0,0,0,2.791-.857,3.481,3.481,0,0,0,1.156-2.54c0-.363-.163-.742.4-.8.423-.056.758.4.973.678a9.447,9.447,0,0,1,1.866,3.4,1,1,0,0,1,.355-.068,1.543,1.543,0,0,1,1.272.65A2.531,2.531,0,0,1,619.659,524.153Z" transform="translate(-394.959 -357.553)" fill="#514e7f"/>
  <path id="Path_4743" data-name="Path 4743" d="M619.886,530.112a6.721,6.721,0,0,1-2.042,3.637,23.776,23.776,0,0,0-2.859,3.126c-.957,1.463-1.388,3.278-2.632,4.514a7.224,7.224,0,0,1-1.595,1.136,11.139,11.139,0,0,1-2.054.945,15.318,15.318,0,0,1-5.8.315,5.217,5.217,0,0,1-1.842-.355,5.543,5.543,0,0,1-.766-.47,3.656,3.656,0,0,1-1.2-1.2,2.915,2.915,0,0,1,1.2-.287c.861.048,1.491.861,2.317,1.113,1.176.355,2.349-.475,3.541-.758.777-.184,1.595-.136,2.364-.4a5.845,5.845,0,0,0,1.751-1.061,8.914,8.914,0,0,0,1.87-1.8,11.588,11.588,0,0,0,1.1-2.189,31.283,31.283,0,0,1,2.217-4.243,3,3,0,0,1,.451-.59,6.315,6.315,0,0,1,.61-.443,4.634,4.634,0,0,0,1.408-2.568,4.5,4.5,0,0,1,.315-.857,1.543,1.543,0,0,1,1.272.65A2.532,2.532,0,0,1,619.886,530.112Z" transform="translate(-395.187 -363.505)" fill="#464353"/>
  <path id="Path_4753" data-name="Path 4753" d="M462.446,200.32a1.91,1.91,0,0,0-1.479.742,4.219,4.219,0,0,0-.618,1.994A17.324,17.324,0,0,1,458,209.363" transform="translate(-309.957 -167.588)" opacity="0.1"/>
  <path id="Path_4754" data-name="Path 4754" d="M467.684,204.31a2.277,2.277,0,0,0-1.934,1.16,6.515,6.515,0,0,0-.486,1.97,10.81,10.81,0,0,1-1.934,4.143" transform="translate(-313.175 -169.987)" opacity="0.1"/>
  <path id="Path_4755" data-name="Path 4755" d="M375.535,371.617v-4.952a13.749,13.749,0,0,0-13.749-13.745H166.209a13.749,13.749,0,0,0-13.749,13.745V375.8Z" transform="translate(-125.346 -258.804)" fill="#33323d"/>
  <path id="Path_4756" data-name="Path 4756" d="M323.37,292.323s-.558,34.635,5.582,46.03,8.772,60.971,8.772,60.971,64.372,6.659,109.231-7.975,140.309-20.619,140.309-20.619L571.179,262.318s-79.465-5.1-124.67,16.464S323.37,292.323,323.37,292.323Z" transform="translate(-230.608 -203.931)" fill="#8dd070"/>
  <path id="Path_4757" data-name="Path 4757" d="M323.37,292.323s-.558,34.635,5.582,46.03,8.772,60.971,8.772,60.971,64.372,6.659,109.231-7.975,140.309-20.619,140.309-20.619L571.179,262.318s-79.465-5.1-124.67,16.464S323.37,292.323,323.37,292.323Z" transform="translate(-230.608 -203.931)" opacity="0.1"/>
  <path id="Path_4758" data-name="Path 4758" d="M358.523,316.518s-2.014,28.578,3.038,37.709,5.287,49.894,5.287,49.894,57.933,2.688,99.142-11.34S593.8,369.654,593.8,369.654l-9.841-88.66S512.3,280.257,470.485,300,358.523,316.518,358.523,316.518Z" transform="translate(-250.502 -215.466)" fill="#8dd070"/>
  <ellipse id="Ellipse_364" data-name="Ellipse 364" cx="15.04" cy="32.258" rx="15.04" ry="32.258" transform="translate(196.639 98.956) rotate(-7.1)" opacity="0.1"/>
  <path id="Path_4759" data-name="Path 4759" d="M493.847,130.66s-77.2,19.538-113.6,53.929S267.2,235.265,267.2,235.265s10.1,33.131,19.435,42.095,27.05,55.345,27.05,55.345,63.308-13.422,101.507-41.126,127.226-62.694,127.226-62.694Z" transform="translate(-195.61 -125.704)" opacity="0.2"/>
  <path id="Path_4760" data-name="Path 4760" d="M264.29,222.831s10,33.135,19.246,42.1,26.8,55.341,26.8,55.341,62.739-13.418,100.594-41.122S537,216.467,537,216.467L488.867,118.23S412.375,137.768,376.3,172.159,264.29,222.831,264.29,222.831Z" transform="translate(-192.585 -118.23)" fill="#8dd070"/>
  <path id="Path_4761" data-name="Path 4761" d="M264.29,222.831s10,33.135,19.246,42.1,26.8,55.341,26.8,55.341,62.739-13.418,100.594-41.122S537,216.467,537,216.467L488.867,118.23S412.375,137.768,376.3,172.159,264.29,222.831,264.29,222.831Z" transform="translate(-192.585 -118.23)" opacity="0.1"/>
  <path id="Path_4762" data-name="Path 4762" d="M308,244.494s6.783,27.82,14.315,34.957,20.123,45.855,20.123,45.855,55.375-15.224,89.928-41.222,113.358-61.195,113.358-61.195L509.537,141.5s-67.705,21.281-101.1,52.909S308,244.494,308,244.494Z" transform="translate(-218.866 -132.221)" fill="#8dd070"/>
  <ellipse id="Ellipse_365" data-name="Ellipse 365" cx="15.04" cy="32.258" rx="15.04" ry="32.258" transform="translate(171.462 83.61) rotate(-24.97)" opacity="0.1"/>
  <path id="Path_4763" data-name="Path 4763" d="M380.832,391.088V528.653a11.894,11.894,0,0,1-11.9,11.894H164.38a11.9,11.9,0,0,1-11.89-11.894V377.22c5.861,2.177,5.861,2.177,11.89,1.994H368.934A11.9,11.9,0,0,1,380.832,391.088Z" transform="translate(-125.364 -272.531)" opacity="0.1"/>
  <path id="Path_4764" data-name="Path 4764" d="M380.832,395.472V533.037a11.9,11.9,0,0,1-11.9,11.894H164.38a11.894,11.894,0,0,1-11.89-11.894V381.6c5.861,2.173,5.861,2.173,11.89,1.994H368.934a11.9,11.9,0,0,1,11.9,11.878Z" transform="translate(-125.364 -275.164)" fill="#504f60"/>
  <path id="Path_4765" data-name="Path 4765" d="M626.184,543.937V587.93H583.518a22,22,0,1,1,0-43.995Z" transform="translate(-372.646 -373.126)" opacity="0.1"/>
  <path id="Path_4766" data-name="Path 4766" d="M627.643,541v44H584.978a22,22,0,1,1,0-43.995Z" transform="translate(-373.528 -371.369)" fill="#33323d"/>
  <circle id="Ellipse_366" data-name="Ellipse 366" cx="8.577" cy="8.577" r="8.577" transform="translate(204.982 184.195)" opacity="0.1"/>
  <circle id="Ellipse_367" data-name="Ellipse 367" cx="8.577" cy="8.577" r="8.577" transform="translate(205.561 183.024)" fill="#f64b5d"/>
  <path id="Path_4881" data-name="Path 4881" d="M821.229,585.1c0-4.193-15.781-7.592-35.249-7.592s-35.248,3.4-35.248,7.592c0,2.687,6.488,5.047,16.268,6.4v41.6a3.525,3.525,0,1,0,7.05,0V592.245c3.727.289,7.742.447,11.93.447s8.2-.158,11.93-.447v40.847a3.525,3.525,0,1,0,7.05,0V591.5C814.741,590.146,821.229,587.787,821.229,585.1Z" transform="translate(-485.814 -367.09)" fill="#ccc"/>
  <path id="Path_4778" data-name="Path 4778" d="M800.855,646.993,795.273,645c-1.539-1.244-1.049-2.66-.271-3.7a2.982,2.982,0,0,1,2.209-1.109,2.647,2.647,0,0,0,1.065-.379,2.552,2.552,0,0,0,.885-.8,4.119,4.119,0,0,0,.634-2.157s6.125-1.794,7.8,0a4.533,4.533,0,0,1,.742,1.089,9.108,9.108,0,0,1,.8,3.943s.311,1.946.818,4.171S800.855,646.993,800.855,646.993Z" transform="translate(-513.002 -428.45)" fill="#2d293d"/>
  <path id="Path_4779" data-name="Path 4779" d="M869.3,640.081l-5.582-1.994c-1.539-1.244-1.049-2.66-.271-3.7a2.948,2.948,0,0,1,2.205-1.109,2.061,2.061,0,0,0,.638-.171,4.22,4.22,0,0,0,.43-.211,3.53,3.53,0,0,0,1.519-2.963s6.121-1.794,7.8,0a4.421,4.421,0,0,1,.586.8,8.86,8.86,0,0,1,.933,4.235s.311,1.95.8,4.171S869.3,640.081,869.3,640.081Z" transform="translate(-554.322 -424.305)" fill="#2d293d"/>
  <path id="Path_4780" data-name="Path 4780" d="M814.989,636.846a4.533,4.533,0,0,1,.742,1.089h0L806.56,639a4.12,4.12,0,0,0,.634-2.157S813.315,635.052,814.989,636.846Z" transform="translate(-520.395 -428.478)" opacity="0.1"/>
  <path id="Path_4781" data-name="Path 4781" d="M882.035,630.755v1.719c-1.428,2.349-8.33,1.834-10.335.658a4.21,4.21,0,0,0,.431-.211,3.531,3.531,0,0,0,1.519-2.963s6.121-1.794,7.8,0A4.413,4.413,0,0,1,882.035,630.755Z" transform="translate(-559.726 -424.343)" opacity="0.1"/>
  <path id="Path_4782" data-name="Path 4782" d="M830.064,477.114a15.607,15.607,0,0,0-1.089,2.341v6.161c-1.563,2.572-9.669,1.715-10.766.311s-2.241-5.056-1.009-5.69,2.261-3.744,2.261-3.744-1.328.311-3.433-2.185-1.479-8.031-1.089-9.354,0-5.77,0-5.77.08-3.122-.542-4.135-1.95-6.779-1.95-6.779a4.59,4.59,0,0,0-1.093-2.963c-1.093-1.013-1.794-4.992-1.794-4.992a5.116,5.116,0,0,1-.777-3.353,6.811,6.811,0,0,0-1.328-4.055L804.8,424.48l-2.5-6.316-1.4,3.664s-.4,8.577-.076,10.367.8,6.551.8,6.551-1.559,3.118-.857,5.77.446,8.35.446,8.35.7,11.771.076,12.708-.546,3.278-.546,3.278,3.19,6.858,2.185,7.8-.7,3.509-.7,3.509,2.181,0,1.248.937-1.639,5.85-1.639,5.85l-9.43,1.1a19.612,19.612,0,0,1-2.109-3.987c-1.248-2.9.231-2.572,1.487-2.887s.463-1.089-1.021-2.026-.622-3.042-.622-3.042,2.261-3.82,1.479-4.131-.857-5.694-.857-5.694-1.559-6.38-1.168-8.11-1.248-5.846-1.248-5.846l-.546-4.912a13.517,13.517,0,0,1-1.715-9.283v-7.576s-2.185-14.658-2.5-22.066c-.2-4.745-.143-11.221-.08-15.26.04-2.265.08-3.768.08-3.768l33.685-3.509a28.149,28.149,0,0,0,.61,5c.347,1.85.885,4.247,1.731,7.241a32.9,32.9,0,0,1,.937,14.969l-.315,10.842s2.963,7.249,2.341,9.745a20.784,20.784,0,0,0-.63,4.53s6.627,15.83,5.925,20.431,2.181,11.855,2.181,11.855S830.845,475.71,830.064,477.114Z" transform="translate(-506.618 -278.3)" fill="#464353"/>
  <path id="Path_4783" data-name="Path 4783" d="M852.05,510.638l10.255-1.368S856.5,515.2,852.05,510.638Z" transform="translate(-547.863 -352.52)" opacity="0.05"/>
  <path id="Path_4784" data-name="Path 4784" d="M871.23,484.14s.351,3.629-1.87,4.992C869.36,489.132,873.335,488.51,871.23,484.14Z" transform="translate(-558.277 -337.457)" opacity="0.1"/>
  <path id="Path_4785" data-name="Path 4785" d="M854.191,455.2s-8.573,7.058-11.691,6.471S854.191,455.2,854.191,455.2Z" transform="translate(-541.845 -320.115)" opacity="0.1"/>
  <path id="Path_4786" data-name="Path 4786" d="M810.051,521s-6.511,1.479-6.707,4.1S810.051,521,810.051,521Z" transform="translate(-518.441 -359.542)" opacity="0.1"/>
  <path id="Path_4787" data-name="Path 4787" d="M813.123,602.56s-9.2,1.715-6.587,2.883a44.638,44.638,0,0,0,6.9,2.105S816.409,607.7,813.123,602.56Z" transform="translate(-520.096 -408.407)" opacity="0.05"/>
  <g id="Group_1590" data-name="Group 1590" transform="translate(276.832 110.924)" opacity="0.05">
    <path id="Path_4788" data-name="Path 4788" d="M800.8,612.442a1.814,1.814,0,0,1-.841-1.332l-.1.163s-.857,2.105.626,3.038c.168.108.331.215.479.319.275-.052.57-.092.853-.164C803.072,614.156,802.279,613.379,800.8,612.442Z" transform="translate(-793.167 -524.596)"/>
    <path id="Path_4789" data-name="Path 4789" d="M831.651,610.475c.255-.231.247-.829.092-1.6a4.484,4.484,0,0,0-.522,2.257A1.947,1.947,0,0,1,831.651,610.475Z" transform="translate(-812.172 -523.255)"/>
    <path id="Path_4790" data-name="Path 4790" d="M827.812,515.59a10.633,10.633,0,0,0-.622,2.867,11.556,11.556,0,0,1,.714-1.97Z" transform="translate(-809.749 -467.163)"/>
    <path id="Path_4791" data-name="Path 4791" d="M881.331,504.043a3.652,3.652,0,0,0,.084-.853c-.116.582-.2,1.12-.255,1.595C881.212,504.542,881.268,504.31,881.331,504.043Z" transform="translate(-842.199 -459.708)"/>
    <path id="Path_4792" data-name="Path 4792" d="M827.869,582.5a5,5,0,0,0,.231-1.735,5.89,5.89,0,0,0-.451,2.189A2.089,2.089,0,0,1,827.869,582.5Z" transform="translate(-810.025 -506.353)"/>
    <path id="Path_4793" data-name="Path 4793" d="M812.791,622a30.966,30.966,0,0,0-1.072,4.785l-9.43,1.089a19.611,19.611,0,0,1-2.109-3.987,7.221,7.221,0,0,1-.267-.686c-.566.259-.8.845-.048,2.556a19.934,19.934,0,0,0,2.113,3.987l9.43-1.092s.7-4.913,1.635-5.85C813.521,622.351,813.226,622.116,812.791,622Z" transform="translate(-793.033 -531.143)"/>
    <path id="Path_4794" data-name="Path 4794" d="M790.766,470.993s.076,5.379.857,5.69h0c.4-.889.658-1.734.307-1.874-.8-.311-.857-5.694-.857-5.694s-1.559-6.38-1.168-8.11-1.248-5.845-1.248-5.845l-.546-4.912a13.517,13.517,0,0,1-1.715-9.283v-7.576s-2.185-14.658-2.5-22.066c-.2-4.745-.144-11.221-.08-15.26,0-.73.024-1.376.036-1.922l-.267.028s-.044,1.5-.08,3.768c-.064,4.039-.124,10.515.08,15.256.311,7.409,2.492,22.07,2.492,22.07v7.576a13.526,13.526,0,0,0,1.719,9.279l.542,4.912s1.639,4.131,1.248,5.85S790.766,470.993,790.766,470.993Z" transform="translate(-783.448 -394.14)"/>
    <path id="Path_4795" data-name="Path 4795" d="M868.61,625.874a9.121,9.121,0,0,1-1.5-3.7c-.961.869.144,4.243,1.2,5.582,1.089,1.4,9.2,2.261,10.766-.315v-1.483C876.952,628.04,869.639,627.2,868.61,625.874Z" transform="translate(-833.532 -531.246)"/>
    <path id="Path_4796" data-name="Path 4796" d="M899.493,609.282a15.764,15.764,0,0,0-1.093,2.341v1.1a16.313,16.313,0,0,1,.8-1.563,4.785,4.785,0,0,0,.343-1.934S899.5,609.266,899.493,609.282Z" transform="translate(-852.564 -523.465)"/>
    <path id="Path_4797" data-name="Path 4797" d="M865.885,595.073a15.418,15.418,0,0,0,.769-1.854s-1.328.311-3.433-2.185c-1.531-1.814-1.619-5.243-1.4-7.484-.4,1.328-1.017,6.862,1.089,9.358A5.552,5.552,0,0,0,865.885,595.073Z" transform="translate(-830.329 -508.025)"/>
    <path id="Path_4798" data-name="Path 4798" d="M841.653,504.4a41.564,41.564,0,0,1,.156,4.621,6.306,6.306,0,0,1,.159-.722c.4-1.328,0-5.77,0-5.77s.08-3.122-.546-4.135-1.93-6.787-1.93-6.787a4.59,4.59,0,0,0-1.093-2.963c-1.093-1.013-1.794-4.992-1.794-4.992a5.13,5.13,0,0,1-.8-3.353,6.791,6.791,0,0,0-1.324-4.055l-2.652-8.421-2.5-6.316-1.408,3.668s0,.463-.048,1.2l1.141-2.979,2.5,6.3,2.652,8.421a6.79,6.79,0,0,1,1.324,4.055,5.132,5.132,0,0,0,.8,3.353s.7,3.987,1.794,4.992a4.564,4.564,0,0,1,1.089,2.963s1.328,5.77,1.95,6.779S841.653,504.4,841.653,504.4Z" transform="translate(-810.164 -434.647)"/>
  </g>
  <path id="Path_4799" data-name="Path 4799" d="M867.284,198.2l-.586,2.847.036,1.268.024.933-3.254.335-.363-.674h0a30.229,30.229,0,0,0-2.524-4.083c-.6-.5-1.675-8.421-.4-7.951a3.4,3.4,0,0,1,1.81,1.639S868.437,193.252,867.284,198.2Z" transform="translate(-552.422 -161.899)" fill="#ffcdd3"/>
  <path id="Path_4800" data-name="Path 4800" d="M872.067,219.959l-3.254.335-.363-.674h0a2.867,2.867,0,0,1,3.589-.59Z" transform="translate(-557.733 -178.605)" opacity="0.1"/>
  <path id="Path_4801" data-name="Path 4801" d="M872.605,221.947l-4.29.993-.092-.638-.243-1.719a2.953,2.953,0,0,1,4.155-.566l.215.873Z" transform="translate(-557.453 -179.051)" fill="#f64b5d"/>
  <path id="Path_4802" data-name="Path 4802" d="M689.692,189.422l-4.581,2.456-.4-.861c-.435-.913-1.085-2.289-1.264-2.791-.271-.758-2.181-1.715-2.181-1.715-4.785-4.582.917-8.521.917-8.521,3.022-6.081,6.38,2.065,6.38,2.065s.471,4.294.139,4.582-.331,1.463-.331,1.463a18,18,0,0,1,1.1,2.62C689.616,189.155,689.692,189.422,689.692,189.422Z" transform="translate(-443.604 -152.806)" fill="#ffcdd3"/>
  <path id="Path_4803" data-name="Path 4803" d="M697.77,208.968l-4.582,2.456-.4-.861c.646-.542,2.939-2.392,3.692-2.317a5.524,5.524,0,0,0,1.085.028C697.695,208.7,697.77,208.968,697.77,208.968Z" transform="translate(-451.696 -172.352)" opacity="0.1"/>
  <path id="Path_4804" data-name="Path 4804" d="M698.423,210.826l-5.148,2.536-.1-1.1-.072-.766s2.983-2.556,3.864-2.456a4.684,4.684,0,0,0,1.344,0l.06.925Z" transform="translate(-451.885 -172.826)" fill="#f64b5d"/>
  <path id="Path_4805" data-name="Path 4805" d="M819.248,230.481S796.807,233.013,801,231.65c2.919-.953,4.079-2.791,4.322-4.865a11.687,11.687,0,0,0-.833-5.184,22.605,22.605,0,0,0-1.994-4.055s17.146-9.434,13.72-.857a13.83,13.83,0,0,0-.973,4.063,11.478,11.478,0,0,0,.443,4.115,12.253,12.253,0,0,0,3.561,5.614Z" transform="translate(-516.766 -175.264)" fill="#ffcdd3"/>
  <path id="Path_4806" data-name="Path 4806" d="M819.249,216.659a13.833,13.833,0,0,0-.973,4.063c-1.615,1.36-3.385,1.268-5.662,1.268-1.746,0-3.684.423-5.08-.419a22.605,22.605,0,0,0-1.994-4.055S822.682,208.082,819.249,216.659Z" transform="translate(-519.801 -175.246)" opacity="0.1"/>
  <circle id="Ellipse_370" data-name="Ellipse 370" cx="9.279" cy="9.279" r="9.279" transform="translate(283.227 28.785)" fill="#ffcdd3"/>
  <path id="Path_4807" data-name="Path 4807" d="M819.248,246.766S796.807,249.3,801,247.934c2.919-.953,4.079-2.791,4.322-4.865a12.517,12.517,0,0,1,4.785-2.548,6.715,6.715,0,0,1,4.067-.068,5.781,5.781,0,0,1,1.479.686A12.254,12.254,0,0,0,819.248,246.766Z" transform="translate(-516.766 -191.286)" opacity="0.1"/>
  <path id="Path_4808" data-name="Path 4808" d="M872.972,223.99l-4.291.993-.092-.638a3.8,3.8,0,0,1,4.127-1.412Z" transform="translate(-557.821 -181.093)" opacity="0.1"/>
  <path id="Path_4809" data-name="Path 4809" d="M698.531,212.219l-5.148,2.536-.1-1.1a37.543,37.543,0,0,1,5.184-2.3Z" transform="translate(-451.993 -174.219)" opacity="0.1"/>
  <path id="Path_4810" data-name="Path 4810" d="M817.975,390.974c-8.7,1.388-21.057,3.158-23.019,2.56-1.631-.494-6.83-.443-11.356-.287.04-2.265.08-3.768.08-3.768l33.686-3.509A28.133,28.133,0,0,0,817.975,390.974Z" transform="translate(-506.646 -278.635)" opacity="0.1"/>
  <path id="Path_4811" data-name="Path 4811" d="M770.3,284.4s-28.617,4.912-31.688,3.987-18.84.076-18.84.076c-7.1,4.757-4.135-2.261-4.135-2.261a17.445,17.445,0,0,1,.235-6.627,40.484,40.484,0,0,0,1.176-6.635s-.156-4.681.7-5.774,1.874-8.888,1.874-8.888.777-5.3.7-6.472.231-4.446.231-4.446l1.017-5.459c-5.849-.778-23.629-11.7-23.629-11.7-.857-3.664-7.484-12.241-7.484-12.241a9.023,9.023,0,0,0-.546-2.105c-.467-1.248,6.551-3.744,6.551-3.744s5.223,6.38,6.316,8.11,4.833,4.912,4.833,4.912a3.761,3.761,0,0,1,1.715.223l.091.028h0a13.9,13.9,0,0,1,3.489,1.994,6.778,6.778,0,0,1,4.757,1.794s3.19-.47,3.744.076,3.274,0,3.274,0,2.727-5.77,4.522-4.1,9.406,1.595,9.406,1.595c1.013-1.348,3.481-2.313,5.024-2.791a6.743,6.743,0,0,1,4.067-.068,5.16,5.16,0,0,1,1.595.8l4.629,4.522s1.324-1.719,1.168-2.105,1.559-.7,1.559-.7,2.261-.7,3.118-.937,1.643.694,1.715.778a9.323,9.323,0,0,1-.4-3.429,4.051,4.051,0,0,0-.937-2.791c2.727-6.707,8.888-1.093,8.888-1.093s.7,3.664.08,5.068.622,4.366.466,5.148.315,2.105.315,3.589a21.926,21.926,0,0,1-1.248,5.535c-.451,1.248-4.211,4.055-4.211,4.055s-.235,4.446-1.874,7.018-.61,11.368-.61,11.368,1.559,6.862,3.509,9.047S770.3,284.4,770.3,284.4Z" transform="translate(-450.275 -174.682)" fill="#3f3d56"/>
  <path id="Path_4812" data-name="Path 4812" d="M781.05,257.535s-.857-2.572-1.639-2.791a18.059,18.059,0,0,1-2.261-1.013l.5-.961s2.927.8,3.4,1.663S781.05,257.535,781.05,257.535Z" transform="translate(-502.62 -198.837)" opacity="0.1"/>
  <path id="Path_4813" data-name="Path 4813" d="M736.918,247.378c-.156.8-7.1,1.479-7.1,1.479l3.509-3.517h0l.088.032h0a13.9,13.9,0,0,1,3.5,2.006Z" transform="translate(-474.059 -194.387)" opacity="0.1"/>
  <circle id="Ellipse_371" data-name="Ellipse 371" cx="0.622" cy="0.622" r="0.622" transform="translate(242.26 41.397)" fill="#575988"/>
  <circle id="Ellipse_372" data-name="Ellipse 372" cx="0.622" cy="0.622" r="0.622" transform="translate(243.053 42.645)" fill="#575988"/>
  <circle id="Ellipse_373" data-name="Ellipse 373" cx="0.622" cy="0.622" r="0.622" transform="translate(243.83 43.798)" fill="#575988"/>
  <circle id="Ellipse_374" data-name="Ellipse 374" cx="0.622" cy="0.622" r="0.622" transform="translate(244.642 45.042)" fill="#575988"/>
  <circle id="Ellipse_375" data-name="Ellipse 375" cx="0.506" cy="0.506" r="0.506" transform="translate(317.82 45.089)" fill="#575988"/>
  <circle id="Ellipse_376" data-name="Ellipse 376" cx="0.506" cy="0.506" r="0.506" transform="translate(317.899 46.242)" fill="#575988"/>
  <circle id="Ellipse_377" data-name="Ellipse 377" cx="0.506" cy="0.506" r="0.506" transform="translate(317.966 47.39)" fill="#575988"/>
  <path id="Path_4814" data-name="Path 4814" d="M787,317.72c-.076-.092,17.5,22.106,31.15,9.279C818.161,327,796.6,329.925,787,317.72Z" transform="translate(-508.684 -237.736)" opacity="0.1"/>
  <path id="Path_4815" data-name="Path 4815" d="M761.7,346.66s10.519.287,11.619,3.314v3.15a2.018,2.018,0,0,1-1.958,0c-1.061-.574-7.42-3.8-9.661-2.249Z" transform="translate(-493.323 -255.086)" opacity="0.1"/>
  <path id="Path_4816" data-name="Path 4816" d="M762.19,346.66s10.06.275,11.113,3.162v3a1.93,1.93,0,0,1-1.874,0c-1.013-.542-7.094-3.625-9.239-2.141Z" transform="translate(-493.617 -255.087)" fill="#3f3d56"/>
  <path id="Path_4817" data-name="Path 4817" d="M776.1,289.38a33.853,33.853,0,0,0,4.079,7,27.459,27.459,0,0,0,6.38,6.168S776.275,290.823,776.1,289.38Z" transform="translate(-502.011 -220.759)" opacity="0.1"/>
  <path id="Path_4818" data-name="Path 4818" d="M767.47,258.73s1.754,7.576,6.276,10.148Z" transform="translate(-496.785 -202.402)" opacity="0.1"/>
  <path id="Path_4819" data-name="Path 4819" d="M760.484,260.646c-.044-.14-1.559,5.981,5.829,9.382C766.313,270.029,763.175,268.964,760.484,260.646Z" transform="translate(-492.471 -203.549)" opacity="0.1"/>
  <path id="Path_4820" data-name="Path 4820" d="M875.906,247.9a52.578,52.578,0,0,1,4.669,3.509S878.127,247.743,875.906,247.9Z" transform="translate(-562.237 -195.919)" opacity="0.1"/>
  <path id="Path_4821" data-name="Path 4821" d="M804.594,203.2a1.464,1.464,0,0,0,1.6,1.447c2.827.175,5.774.3,8.374-.8a3.19,3.19,0,0,0,1.276-.845,5.244,5.244,0,0,0,.742-2.053,29.846,29.846,0,0,1,1.711-3.94,13.2,13.2,0,0,0,.921-7.078,4.785,4.785,0,0,0-.71-2.069c-.75-1.073-2.117-1.507-3.11-2.361s-1.631-2.157-2.791-2.791a5.359,5.359,0,0,0-3.5-.311,18.379,18.379,0,0,0-6.531,2.452,3.332,3.332,0,0,1-2.185.742,2.921,2.921,0,0,1-1.595-1.232,8.636,8.636,0,0,0-.666,4.047,1.735,1.735,0,0,1-.02.61,1.83,1.83,0,0,1-.435.642c-.7.8-1.132,2.093-.443,2.915.3.355.762.55,1.053.913.522.65.347,1.595.335,2.424a1.249,1.249,0,0,0,.207.821,1.2,1.2,0,0,0,1.144.275,3.113,3.113,0,0,1,1.22-.116,2.046,2.046,0,0,1,1.061.8A14.983,14.983,0,0,1,804.594,203.2Z" transform="translate(-514.608 -156.727)" fill="#2d293d"/>
  <g id="Group_1591" data-name="Group 1591" transform="translate(282.283 27.553)" opacity="0.1">
    <path id="Path_4822" data-name="Path 4822" d="M816.169,213.989a3.19,3.19,0,0,1-1.276.845c-2.616,1.089-5.558.965-8.373.8a1.468,1.468,0,0,1-1.6-1.451,14.545,14.545,0,0,0-2.365-5.487,2.05,2.05,0,0,0-1.061-.817,3.27,3.27,0,0,0-1.22.116,1.2,1.2,0,0,1-1.144-.271,1.247,1.247,0,0,1-.207-.821c0-.837.187-1.774-.335-2.424-.291-.363-.754-.558-1.053-.917a1.819,1.819,0,0,1-.18-1.858,2.126,2.126,0,0,0-.132,2.484c.3.355.762.55,1.053.913.522.654.347,1.595.335,2.424a1.24,1.24,0,0,0,.2.821,1.2,1.2,0,0,0,1.148.275,3.115,3.115,0,0,1,1.22-.116,2.045,2.045,0,0,1,1.061.8,14.575,14.575,0,0,1,2.365,5.491,1.994,1.994,0,0,0,.69,1.264,1.934,1.934,0,0,0,.877.191c2.827.175,5.774.3,8.373-.8a3.157,3.157,0,0,0,1.276-.845,2.435,2.435,0,0,0,.4-.75A.2.2,0,0,1,816.169,213.989Z" transform="translate(-796.877 -195.97)"/>
    <path id="Path_4823" data-name="Path 4823" d="M799.961,191.828a1.364,1.364,0,0,0,.283-.47,1.736,1.736,0,0,0,0-.61,8.65,8.65,0,0,1,.434-3.357l-.052-.06a8.574,8.574,0,0,0-.666,4.043,2.876,2.876,0,0,1,0,.455Z" transform="translate(-798.715 -187.33)"/>
  </g>
  <path id="Path_4824" data-name="Path 4824" d="M812.08,248.573s11.591,1.539,12.632-.2" transform="translate(-523.743 -196.478)" opacity="0.1"/>
  <path id="Path_4825" data-name="Path 4825" d="M868.59,236.85s6.444,0,7.859,2.424" transform="translate(-557.837 -189.552)" opacity="0.1"/>
</svg>
