<svg xmlns="http://www.w3.org/2000/svg" width="104" height="104" viewBox="0 0 104 104">
  <g id="bank" transform="translate(-1301 -41)">
    <circle id="Ellipse_22" data-name="Ellipse 22" cx="52" cy="52" r="52" transform="translate(1301 41)" fill="rgba(246,75,93,0.1)"/>
    <g id="wallet" transform="translate(1300.592 58.001)">
      <g id="Group_881" data-name="Group 881" transform="translate(20.408 -0.001)">
        <g id="Group_877" data-name="Group 877" transform="translate(22.359 11.181)">
          <path id="Path_2209" data-name="Path 2209" d="M212.8,98.373l4.2-4.2a3.506,3.506,0,0,1,0-4.961l-6.758-6.753a3.513,3.513,0,0,1-4.965,0L189.357,98.374H212.8Z" transform="translate(-189.357 -82.463)" fill="#f87885"/>
        </g>
        <g id="Group_879" data-name="Group 879" transform="translate(0 0)">
          <g id="Group_878" data-name="Group 878">
            <path id="Path_2210" data-name="Path 2210" d="M78.881,54.269V65.14a2.12,2.12,0,0,1-2.11,2.125H31.509V28.1H76.771a2.12,2.12,0,0,1,2.11,2.125V41.1h2.712V30.225a4.858,4.858,0,0,0-3.9-4.77l2.255-2.271a4.178,4.178,0,0,0,0-5.877L63.975,1.214a4.106,4.106,0,0,0-5.831,0L34.168,25.366H25.231a4.846,4.846,0,0,0-4.823,4.859V65.14A4.846,4.846,0,0,0,25.231,70h51.54a4.846,4.846,0,0,0,4.823-4.859V54.269H78.881ZM60.06,3.149a1.406,1.406,0,0,1,2,0L78.033,19.241a1.427,1.427,0,0,1,0,2.008l-4.086,4.116H38.006ZM28.8,67.264H25.231a2.12,2.12,0,0,1-2.11-2.125V30.225a2.12,2.12,0,0,1,2.11-2.125H28.8Z" transform="translate(-20.408 0.001)" fill="rgba(26,36,85,0.8)"/>
          </g>
        </g>
        <path id="Path_2211" data-name="Path 2211" d="M342.075,306.954h-16.3a8.186,8.186,0,1,1,0-16.373h16.3Z" transform="translate(-278.075 -251.194)" fill="#f87885"/>
        <g id="Group_880" data-name="Group 880" transform="translate(44.397 42.952)">
          <path id="Path_2212" data-name="Path 2212" d="M353.88,324.883a4.676,4.676,0,1,1,4.678-4.676A4.682,4.682,0,0,1,353.88,324.883Zm0-6.537a1.861,1.861,0,1,0,1.864,1.861A1.865,1.865,0,0,0,353.88,318.346Z" transform="translate(-349.202 -315.532)" fill="rgba(26,36,85,0.8)"/>
        </g>
      </g>
    </g>
  </g>
</svg>
