<svg xmlns="http://www.w3.org/2000/svg" width="60" height="48" viewBox="0 0 60 48">
  <g id="_005-bell" data-name="005-bell" transform="translate(-58.369 -3)">
    <rect id="Rectangle_2033" data-name="Rectangle 2033" width="60" height="48" transform="translate(58.369 3)" fill="rgba(255,255,255,0)"/>
    <g id="Group_1590" data-name="Group 1590" transform="translate(0 0)">
      <g id="Group_1450" data-name="Group 1450" transform="translate(71.688 11.353)">
        <path id="Path_4418" data-name="Path 4418" d="M125.878,386.331a.6.6,0,0,1-.014.574c-.048.085-1.251,1.355-1.534,1.355H94.086a.544.544,0,0,1-.477-.283c-.049-.085-1.206-1.383-1.072-1.645l3.33-5.536h27.74Z" transform="translate(-92.526 -355.257)" fill="rgba(246,75,93,0.8)"/>
        <path id="Path_4419" data-name="Path 4419" d="M148.6,131.9v10.729H120.859v-11.8c0-7.471,6.8-12.478,13.871-12.478S148.6,124.428,148.6,131.9Zm-12.768-9.276c0-.644-.494-.094-1.1-.094-5.446,0-9.877,3.613-9.877,9.371a1.136,1.136,0,0,0,1.1,1.166c.609,0,.048-.522.048-1.166,0-4.472,4.5-8.11,8.726-8.11A1.136,1.136,0,0,0,135.832,122.623Z" transform="translate(-118.049 -118.35)" fill="rgba(246,75,93,0.8)"/>
      </g>
      <path id="Path_4420" data-name="Path 4420" d="M221.567,457.563h6.956a3.493,3.493,0,0,1-6.956,0Z" transform="translate(-136.676 -412.062)" fill="#fff"/>
      <path id="Path_4421" data-name="Path 4421" d="M239.606,27.161v3.208a15.99,15.99,0,0,0-4.151,0V27.161a2.075,2.075,0,1,1,4.151,0Z" transform="translate(-149.162 -20.825)" fill="rgba(20,146,230,0.25)"/>
      <path id="Path_4422" data-name="Path 4422" d="M163.063,149.112a1.166,1.166,0,1,1,0,2.332,8.119,8.119,0,0,0-8.11,8.11,1.166,1.166,0,0,1-2.332,0A10.454,10.454,0,0,1,163.063,149.112Z" transform="translate(-74.426 -134.441)" fill="#414764"/>
      <path id="Path_4417" data-name="Path 4417" d="M106.037,41.313a2.942,2.942,0,0,1-.07,2.843,2.761,2.761,0,0,1-2.4,1.4H93.952a5.585,5.585,0,0,1-11.167,0H73.17a2.761,2.761,0,0,1-2.4-1.4,2.941,2.941,0,0,1-.071-2.843l2.422-4.688V25.049A15.688,15.688,0,0,1,84.138,9.943V7.363a4.233,4.233,0,1,1,8.462,0v2.58a15.687,15.687,0,0,1,11.015,15.106V36.626Zm-1.99,1.654a.582.582,0,0,0,.015-.568l-2.283-4.42H74.96L72.676,42.4a.582.582,0,0,0,.015.568.547.547,0,0,0,.479.28h30.4A.547.547,0,0,0,104.047,42.967Zm-2.671-7.3V25.049a13.013,13.013,0,1,0-26.014,0V35.671h26.014Zm-9.668,9.885H85.03a3.345,3.345,0,0,0,6.678,0ZM90.361,9.46v-2.1a1.993,1.993,0,1,0-3.985,0v2.1a14.888,14.888,0,0,1,3.985,0Z" fill="#414764"/>
    </g>
  </g>
</svg>
