<svg xmlns="http://www.w3.org/2000/svg" width="32" height="32" viewBox="0 0 32 32">
  <g id="branding" transform="translate(5)">
    <path id="Path_2183" data-name="Path 2183" d="M0,0H32V32H0Z" transform="translate(-5)" fill="none"/>
    <g id="Group_845" data-name="Group 845" transform="translate(12.996 4)">
      <g id="Path_2157" data-name="Path 2157" transform="translate(-288.512)" fill="none" stroke-linecap="round" stroke-linejoin="round">
        <path d="M298.887.363a.527.527,0,0,0-.051-.07.776.776,0,0,0-.33-.24s-.008-.008-.013-.009-.03,0-.046,0A.822.822,0,0,0,298.227,0a.767.767,0,0,0-.153.03c-.03.006-.058.007-.088.016a.788.788,0,0,0-.346.213c-.006.006-.016.007-.022.014-2.46,2.839-4.844,4.738-8.6,5.434v9.587c3.758.7,6.141,2.593,8.6,5.433.006.007.017.01.025.019a.76.76,0,0,0,.2.144c.024.013.043.033.066.044a.848.848,0,0,0,.322.066.863.863,0,0,0,.267-.044s.008-.008.013-.009a.764.764,0,0,0,.33-.24c.019-.024.033-.045.051-.071a.7.7,0,0,0,.129-.387V.75A.7.7,0,0,0,298.887.363Z" stroke="none"/>
        <path d="M 296.5159606933594 4.893224716186523 C 295.1337280273438 6.026856422424316 293.5183410644531 7.00338077545166 291.5159606933594 7.650980949401855 L 291.5159606933594 13.35040378570557 C 293.5188293457031 13.99789428710938 295.1338500976562 14.9738826751709 296.5159606933594 16.10714149475098 L 296.5159606933594 4.893224716186523 M 298.226806640625 0 C 298.3057556152344 0 298.3767700195312 0.02249908447265625 298.4478454589844 0.04199981689453125 C 298.4596862792969 0.04537582397460938 298.4706115722656 0.04199981689453125 298.4819946289062 0.04199981689453125 C 298.4857788085938 0.04199981689453125 298.4896240234375 0.04237556457519531 298.4935913085938 0.04350090026855469 C 298.4983215332031 0.04500007629394531 298.50146484375 0.05100059509277344 298.5062255859375 0.05249977111816406 C 298.6403198242188 0.1019992828369141 298.749267578125 0.1875 298.8360290527344 0.2924995422363281 C 298.8565673828125 0.3164997100830078 298.8707885742188 0.3374996185302734 298.8865356445312 0.3630008697509766 C 298.9623413085938 0.4785003662109375 299.0159606933594 0.6060009002685547 299.0159606933594 0.75 L 299.0159606933594 20.25 C 299.0159606933594 20.39399909973145 298.9623413085938 20.52149963378906 298.8865356445312 20.63699913024902 C 298.8692016601562 20.66250038146973 298.85498046875 20.68350028991699 298.8360290527344 20.70750045776367 C 298.749267578125 20.81399917602539 298.6403198242188 20.89800071716309 298.5062255859375 20.94750022888184 C 298.50146484375 20.94899940490723 298.4983215332031 20.95499038696289 298.4935913085938 20.95649909973145 C 298.4052429199219 20.98498916625977 298.3168334960938 21 298.226806640625 21 C 298.1116943359375 21 298.0043640136719 20.97450065612793 297.9049377441406 20.93400001525879 C 297.8812561035156 20.92350006103516 297.8623046875 20.90398979187012 297.8386840820312 20.89049911499023 C 297.7659912109375 20.85149955749512 297.6981811523438 20.80500030517578 297.6429748535156 20.74650001525879 C 297.6350402832031 20.73749923706055 297.6239624023438 20.73450088500977 297.61767578125 20.72699928283691 C 295.1572570800781 17.88750076293945 292.7736511230469 15.98999977111816 289.0159606933594 15.29400062561035 L 289.0159606933594 5.707500457763672 C 292.7736511230469 5.011500358581543 295.1572570800781 3.112499237060547 297.61767578125 0.2730007171630859 C 297.6239624023438 0.2670001983642578 297.6334533691406 0.2654991149902344 297.6397705078125 0.2595005035400391 C 297.7328796386719 0.1604995727539062 297.8496704101562 0.08849906921386719 297.9853820800781 0.04649925231933594 C 298.0154418945312 0.03750038146972656 298.0437927246094 0.03599929809570312 298.0737609863281 0.03000068664550781 C 298.1258544921875 0.019500732421875 298.1732177734375 0 298.226806640625 0 Z" stroke="none" fill="#fff"/>
      </g>
      <path id="Path_2156" data-name="Path 2156" d="M13.016,135.482v-9.113c-.281.024-.559.064-.842.076h-8.1a.782.782,0,0,0-.813.747v.747H.828a.782.782,0,0,0-.813.747v4.481a.782.782,0,0,0,.813.747H3.266v.747a.782.782,0,0,0,.813.747h.492l3.266,8a1.586,1.586,0,0,0,1.2.929,1.722,1.722,0,0,0,.325.031,1.649,1.649,0,0,0,1.142-.442l1.952-1.779a1.4,1.4,0,0,0,.3-1.728l-2.727-5.014h2.158C12.462,135.417,12.738,135.458,13.016,135.482Z" transform="translate(-14.512 -120.368)" fill="#fff"/>
    </g>
  </g>
</svg>
