<svg xmlns="http://www.w3.org/2000/svg" width="32" height="32" viewBox="0 0 32 32">
  <g id="chat-web" transform="translate(5)">
    <path id="Path_2183" data-name="Path 2183" d="M0,0H32V32H0Z" transform="translate(-5)" fill="rgba(0,0,0,0)"/>
    <g id="whatsapp" transform="translate(-7 -2)">
      <path id="Path_4290" data-name="Path 4290" d="M68.494,90.653,70.058,85.1a11.149,11.149,0,1,1,4.165,4.076Z" transform="translate(-61.748 -61.576)" fill="#26aa1f"/>
      <g id="Group_1266" data-name="Group 1266" transform="translate(6 6)">
        <path id="Path_4289" data-name="Path 4289" d="M68.494,92.321l1.681-5.963a11.982,11.982,0,1,1,4.476,4.38Zm6.471-3.761.367.224a9.936,9.936,0,1,0-3.2-3.128l.247.384-.968,3.434Z" transform="translate(-68.494 -68.321)" fill="#fff"/>
        <path id="Path_4287" data-name="Path 4287" d="M150.37,152.868l-.8-.041a1.006,1.006,0,0,0-.688.222,3.431,3.431,0,0,0-1.2,1.731,5.033,5.033,0,0,0,1.292,4.113,12.942,12.942,0,0,0,7,4.794,3.593,3.593,0,0,0,2.89-.337,2.437,2.437,0,0,0,1.125-1.545l.128-.562a.385.385,0,0,0-.232-.437l-2.706-1.175a.431.431,0,0,0-.5.116l-1.062,1.3a.315.315,0,0,1-.342.1,8.24,8.24,0,0,1-4.5-3.627.276.276,0,0,1,.039-.323l1.015-1.106a.373.373,0,0,0,.068-.409l-1.166-2.57A.415.415,0,0,0,150.37,152.868Z" transform="translate(-141.823 -146.302)" fill="#fff"/>
      </g>
    </g>
  </g>
</svg>
