<svg xmlns="http://www.w3.org/2000/svg" width="60" height="48" viewBox="0 0 60 48">
  <g id="_003-chat" data-name="003-chat" transform="translate(0 -50.753)">
    <path id="Path_4399" data-name="Path 4399" d="M65.639,75.46V89.441H49.858a3.393,3.393,0,0,0-3.39,3.39v7.406c-2.1,0-7.359,0-7.38.006a1.405,1.405,0,0,0-.907.41l-8.015,8.015s0-7.1-.007-7.138a1.422,1.422,0,0,0-1.414-1.294H24.707a.549.549,0,0,1-.55-.55V75.46a.55.55,0,0,1,.55-.55H65.089A.55.55,0,0,1,65.639,75.46Zm-7.4,7.42c0-.785.364-1.42-.42-1.42H31.975a1.42,1.42,0,0,0-1.42,1.42c0,.784.636.42,1.42.42H57.821C58.605,83.3,58.241,83.664,58.241,82.88ZM42.2,92.268c0-.784.364-1.42-.42-1.42H31.975a1.421,1.421,0,0,0-1.42,1.42c0,.784.636.42,1.42.42h9.809C42.568,92.688,42.2,93.052,42.2,92.268Z" transform="translate(-21.317 -21.317)" fill="rgba(246,75,93,0.8)"/>
    <path id="Path_4400" data-name="Path 4400" d="M267.443,223.2v16.527a.55.55,0,0,1-.55.55h-2.4a1.42,1.42,0,0,0-1.414,1.311c0,.031-.006,4.267-.006,4.267l-5.156-5.156-.016-.016c-.021-.02-.04-.037-.058-.053a1.409,1.409,0,0,0-.935-.354H238.626a.551.551,0,0,1-.55-.55V223.2a.55.55,0,0,1,.55-.55h28.268A.549.549,0,0,1,267.443,223.2Zm-6.665,8.264c0-.784-.636-.42-1.42-.42s-.42-.364-.42.42-.364,1.42.42,1.42A1.421,1.421,0,0,0,260.778,231.465Zm-6.6,0c0-.784-.636-.42-1.42-.42s-.42-.364-.42.42-.364,1.42.42,1.42A1.421,1.421,0,0,0,254.18,231.465Zm-6.6,0c0-.784-.636-.42-1.42-.42s-.42-.364-.42.42-.364,1.42.42,1.42A1.421,1.421,0,0,0,247.581,231.465Z" transform="translate(-210.283 -151.952)" fill="rgba(20,146,230,0.25)"/>
    <g id="Group_1447" data-name="Group 1447" transform="translate(0 50.753)">
      <path id="Path_4401" data-name="Path 4401" d="M408.424,285.531a1.42,1.42,0,1,1-1.42,1.42A1.421,1.421,0,0,1,408.424,285.531Z" transform="translate(-359.316 -258.087)" fill="#414764"/>
      <path id="Path_4402" data-name="Path 4402" d="M25.069,81.59H18.395L8.4,91.56a1.421,1.421,0,0,1-1,.414,1.418,1.418,0,0,1-1.414-1.412V81.59H3.379A3.378,3.378,0,0,1,0,78.219V54.124a3.378,3.378,0,0,1,3.379-3.371H43.628a3.379,3.379,0,0,1,3.379,3.371v13.9h9.615A3.377,3.377,0,0,1,60,71.4V87.837a3.378,3.378,0,0,1-3.379,3.371h-.972v6.132a1.416,1.416,0,0,1-2.416,1l-7.146-7.131H28.447a3.379,3.379,0,0,1-3.379-3.371ZM44.175,68.029v-13.9a.548.548,0,0,0-.548-.547H3.379a.548.548,0,0,0-.548.547V78.219a.547.547,0,0,0,.548.547H7.4a1.416,1.416,0,0,1,1.41,1.287c0,.037.007,7.1.007,7.1l7.989-7.971a1.4,1.4,0,0,1,.9-.408c.021,0,5.258,0,7.356-.006V71.4a3.378,3.378,0,0,1,3.379-3.371ZM57.169,87.837V71.4a.547.547,0,0,0-.548-.547H28.447a.548.548,0,0,0-.548.547V87.837a.548.548,0,0,0,.548.547H46.674a1.405,1.405,0,0,1,.931.352c.018.016.037.033.058.052l.016.016,5.139,5.128s0-4.213.006-4.244a1.414,1.414,0,0,1,1.41-1.3h2.388A.548.548,0,0,0,57.169,87.837Z" transform="translate(0 -50.753)" fill="#414764"/>
      <path id="Path_4403" data-name="Path 4403" d="M352.308,285.531a1.42,1.42,0,1,1-1.42,1.42A1.421,1.421,0,0,1,352.308,285.531Z" transform="translate(-309.775 -258.087)" fill="#414764"/>
      <path id="Path_4404" data-name="Path 4404" d="M105.836,130.615a1.42,1.42,0,1,1,0,2.84H79.99a1.42,1.42,0,1,1,0-2.84Z" transform="translate(-69.39 -121.28)" fill="#414764"/>
      <path id="Path_4405" data-name="Path 4405" d="M296.18,285.531a1.42,1.42,0,1,1-1.42,1.42A1.421,1.421,0,0,1,296.18,285.531Z" transform="translate(-260.224 -258.087)" fill="#414764"/>
      <path id="Path_4406" data-name="Path 4406" d="M89.8,210.465a1.42,1.42,0,0,1,0,2.84H79.99a1.42,1.42,0,1,1,0-2.84Z" transform="translate(-69.371 -191.796)" fill="#414764"/>
    </g>
  </g>
</svg>
