<svg xmlns="http://www.w3.org/2000/svg" width="32" height="32" viewBox="0 0 32 32">
  <g id="chat-mob" transform="translate(9 4)">
    <rect id="Rectangle_2026" data-name="Rectangle 2026" width="32" height="32" rx="4" transform="translate(-9 -4)" fill="#f64b5d" opacity="0.05"/>
    <path id="icons8-whatsapp" d="M15.682,4.344A8,8,0,0,0,3.09,13.988L2.052,17.432a.441.441,0,0,0,.537.553L6.2,17.019a8,8,0,0,0,3.823.973h0a7.9,7.9,0,0,0,7.538-5.235A8.066,8.066,0,0,0,15.682,4.344Zm-1.745,8.505a2.016,2.016,0,0,1-1.35.949c-.367.034-.71.166-2.4-.5a8.2,8.2,0,0,1-3.414-3.015,3.883,3.883,0,0,1-.816-2.066,2.236,2.236,0,0,1,.7-1.666.734.734,0,0,1,.533-.25c.133,0,.267,0,.383,0,.143.006.3.013.45.345.178.4.566,1.383.616,1.483a.369.369,0,0,1,.017.35,1.386,1.386,0,0,1-.2.333c-.1.117-.21.26-.3.35s-.2.208-.088.407a6.01,6.01,0,0,0,1.112,1.383,5.492,5.492,0,0,0,1.607.992c.2.1.316.083.433-.05s.5-.583.633-.783.267-.166.45-.1,1.166.55,1.366.65.333.15.383.233A1.671,1.671,0,0,1,13.937,12.849Z" transform="translate(-3.022 2)" fill="#f64b5d"/>
  </g>
</svg>
