<svg xmlns="http://www.w3.org/2000/svg" width="24" height="24" viewBox="0 0 24 24"><defs><style>.a{fill:none;}.b{fill:#fff;}</style></defs><path class="a" d="M0,0H24V24H0Z"/><path class="b" d="M3.889,11.889H9.222A.892.892,0,0,0,10.111,11V3.889A.892.892,0,0,0,9.222,3H3.889A.892.892,0,0,0,3,3.889V11A.892.892,0,0,0,3.889,11.889Zm0,7.111H9.222a.892.892,0,0,0,.889-.889V14.556a.892.892,0,0,0-.889-.889H3.889A.892.892,0,0,0,3,14.556v3.556A.892.892,0,0,0,3.889,19Zm8.889,0h5.333A.892.892,0,0,0,19,18.111V11a.891.891,0,0,0-.889-.889H12.778a.892.892,0,0,0-.889.889v7.111A.892.892,0,0,0,12.778,19ZM11.889,3.889V7.444a.892.892,0,0,0,.889.889h5.333A.892.892,0,0,0,19,7.444V3.889A.892.892,0,0,0,18.111,3H12.778A.892.892,0,0,0,11.889,3.889Z" transform="translate(1 1)"/></svg>