<svg xmlns="http://www.w3.org/2000/svg" width="104" height="104" viewBox="0 0 104 104">
  <g id="deli" transform="translate(-1301 -41)">
    <circle id="Ellipse_22" data-name="Ellipse 22" cx="52" cy="52" r="52" transform="translate(1301 41)" fill="rgba(246,75,93,0.1)"/>
    <g id="delivery-truck" transform="translate(1317 33.728)">
      <g id="Group_870" data-name="Group 870" transform="translate(0 27.271)">
        <g id="Group_868" data-name="Group 868" transform="translate(8.534 8.371)" opacity="0.8">
          <path id="Path_2200" data-name="Path 2200" d="M122.059,121.6h-.043v-8.125a1.263,1.263,0,0,0-.1-.522l-5.09-13.382a1.4,1.4,0,0,0-1.313-.9h-8.306V89.922a3.817,3.817,0,0,0-3.823-3.8H78.644a14.9,14.9,0,0,1,1.087,2.791h23.652a1.014,1.014,0,0,1,1.015,1.011V121.6H64.252V106.367a14.975,14.975,0,0,1-2.808-.728V121.6H61.4A1.4,1.4,0,0,0,60,123v8.584a1.4,1.4,0,0,0,1.4,1.4h6.516a7.279,7.279,0,1,0,14.244,0h20.674a7.279,7.279,0,1,0,14.244,0h4.979a1.4,1.4,0,0,0,1.4-1.4V123a1.4,1.4,0,0,0-1.4-1.4Zm-14.852-20.14h7.335l4.039,10.62H107.206Zm0,13.411h12V121.6h-12ZM75.039,138.958a4.479,4.479,0,1,1,4.47-4.479A4.48,4.48,0,0,1,75.039,138.958Zm34.918,0a4.479,4.479,0,1,1,4.47-4.479A4.48,4.48,0,0,1,109.958,138.958Zm10.7-8.773h-4.827a7.277,7.277,0,0,0-11.74,0H80.91a7.277,7.277,0,0,0-11.74,0H62.805v-5.793h57.849Z" transform="translate(-59.997 -86.12)" fill="#1a2455"/>
        </g>
        <g id="Group_869" data-name="Group 869" transform="translate(0 0)">
          <ellipse id="Ellipse_23" data-name="Ellipse 23" cx="15.25" cy="15.31" rx="15.25" ry="15.31" fill="#f87885"/>
          <path id="Path_2201" data-name="Path 2201" d="M101.283,105.657H98.63a1.422,1.422,0,0,1-1.422-1.422V99.8a1.422,1.422,0,0,1,2.845,0v3.017h1.231a1.422,1.422,0,1,1,0,2.845Z" transform="translate(-83.381 -88.259)" fill="#1a2455" opacity="0.8"/>
        </g>
      </g>
    </g>
  </g>
</svg>
