<svg xmlns="http://www.w3.org/2000/svg" width="52" height="48" viewBox="0 0 52 48">
  <g id="_001-message" data-name="001-message" transform="translate(0 -16.808)">
    <path id="Path_4384" data-name="Path 4384" d="M342.88,221.237l.031,24.168-16.766-12.229Z" transform="translate(-293.523 -184.563)" fill="rgba(246,75,93,0.8)"/>
    <path id="Path_4385" data-name="Path 4385" d="M436.851,171.6l-5.166,3.895V167.7Z" transform="translate(-388.57 -136.632)" fill="rgba(20,146,230,0.25)"/>
    <path id="Path_4386" data-name="Path 4386" d="M93.524,326.117l-41.653.056,20.864-16.757Z" transform="translate(-46.714 -263.976)" fill="rgba(246,75,93,0.8)"/>
    <path id="Path_4387" data-name="Path 4387" d="M136.555,95.26v14.9l-10.413,6.983L121.9,113.97l-.019-.013a1.39,1.39,0,0,0-1.638.013l-4.277,3.2-10.423-6.949V95.26Zm-5.007,6.517a1.329,1.329,0,0,0-1.351-1.3H111.9a1.3,1.3,0,1,0,0,2.607h18.3A1.329,1.329,0,0,0,131.548,101.777Zm0,6.778a1.329,1.329,0,0,0-1.351-1.3H111.9a1.3,1.3,0,1,0,0,2.607h18.3A1.329,1.329,0,0,0,131.548,108.556Z" transform="translate(-95.047 -70.518)" fill="#fff"/>
    <g id="Group_1446" data-name="Group 1446" transform="translate(15.872 29.973)">
      <path id="Path_4388" data-name="Path 4388" d="M173.072,147.708a1.3,1.3,0,1,1,0,2.607H155.422a1.3,1.3,0,0,1,0-2.607Z" transform="translate(-154.119 -147.708)" fill="#414764"/>
      <path id="Path_4389" data-name="Path 4389" d="M173.072,215.891a1.3,1.3,0,1,1,0,2.607H155.422a1.3,1.3,0,1,1,0-2.607Z" transform="translate(-154.119 -209.113)" fill="#414764"/>
    </g>
    <path id="Path_4390" data-name="Path 4390" d="M229.153,48.182h-6.641l3.33-2.3Z" transform="translate(-199.841 -26.181)" fill="rgba(20,146,230,0.25)"/>
    <path id="Path_4391" data-name="Path 4391" d="M43.024,233.768l-16.741,12.21-.033-24.111Z" transform="translate(-23.64 -185.131)" fill="rgba(246,75,93,0.8)"/>
    <path id="Path_4392" data-name="Path 4392" d="M40.453,166.993l1,7.93-5.29-3.964Z" transform="translate(-32.568 -135.995)" fill="rgba(20,146,230,0.25)"/>
    <path id="Path_4383" data-name="Path 4383" d="M52,63.423a1.324,1.324,0,0,1-1.33,1.318l-49.3.067h0a1.342,1.342,0,0,1-.94-.384,1.319,1.319,0,0,1-.392-.93L0,34.974c0-.008,0-.014,0-.022a1.31,1.31,0,0,1,.574-1.064l7.48-5.107V23.365a1.323,1.323,0,0,1,1.332-1.316h8.525l7.334-5.007a1.344,1.344,0,0,1,1.517,0l7.287,5h8.563a1.323,1.323,0,0,1,1.332,1.316v5.48l7.444,5.113a1.313,1.313,0,0,1,.523.73.742.742,0,0,1,.048.262ZM49.333,60.8,49.3,37.421,33.226,48.462ZM43.945,37.893,48.2,34.971l-4.256-2.922ZM5.268,62.172,46.7,62.115,26.02,46.269ZM41.281,39.723V24.68H10.719v15.1l10.27,7.014,4.215-3.23a1.344,1.344,0,0,1,1.614-.013l.019.013,4.184,3.206ZM22.6,22.049h6.785L26,19.725ZM2.7,60.81,18.781,48.487l-16.115-11ZM8.055,37.963V31.978L3.673,34.971Z" fill="#414764"/>
  </g>
</svg>
