<svg xmlns="http://www.w3.org/2000/svg" width="32" height="32" viewBox="0 0 32 32">
  <g id="help-mob" transform="translate(9 4)">
    <rect id="Rectangle_2025" data-name="Rectangle 2025" width="32" height="32" rx="4" transform="translate(-9 -4)" fill="#f64b5d" opacity="0.05"/>
    <g id="help_outline" transform="translate(-19 -5)">
      <path id="Path_5990" data-name="Path 5990" d="M11,2a9,9,0,1,0,9,9A9,9,0,0,0,11,2Zm0,16.2A7.2,7.2,0,1,1,18.2,11,7.21,7.21,0,0,1,11,18.2Zm.549-12.564A3.6,3.6,0,0,0,7.562,8.147.816.816,0,0,0,8.345,9.2h.18a.866.866,0,0,0,.792-.6,1.8,1.8,0,0,1,2.07-1.152A1.821,1.821,0,0,1,12.8,9.335c-.09,1.206-1.458,1.467-2.205,2.592,0,.009-.009.009-.009.018s-.018.027-.027.045a3,3,0,0,0-.225.45c-.009.027-.027.045-.036.072a.574.574,0,0,0-.018.063A3.346,3.346,0,0,0,10.1,13.7h1.8a1.912,1.912,0,0,1,.252-.963c.018-.027.027-.054.045-.081a2.482,2.482,0,0,1,.252-.351c.009-.009.018-.027.027-.036a3.163,3.163,0,0,1,.3-.306c.864-.819,2.034-1.485,1.791-3.2a3.668,3.668,0,0,0-3.015-3.123Z" transform="translate(15 6)" fill="#f64b5d"/>
      <g id="Ellipse_397" data-name="Ellipse 397" transform="translate(25 20.5)" fill="none" stroke="#f64b5d" stroke-width="1">
        <circle cx="1" cy="1" r="1" stroke="none"/>
        <circle cx="1" cy="1" r="0.5" fill="none"/>
      </g>
    </g>
  </g>
</svg>
