<svg xmlns="http://www.w3.org/2000/svg" width="32" height="32" viewBox="0 0 32 32"><defs><style>.a,.b{fill:none;}.b,.c{stroke:#fff;stroke-linecap:round;stroke-linejoin:round;stroke-width:2.5px;}.c{fill:#fff;}</style></defs><g transform="translate(5)"><path class="a" d="M0,0H32V32H0Z" transform="translate(-5)"/><g transform="translate(-3 30) rotate(-90)"><g transform="translate(25 14) rotate(180)"><path class="b" d="M4,8,0,4,4,0" transform="translate(23) rotate(90)"/><path class="b" d="M13,0V2c0,2.209-1.455,4-3.25,4H0" transform="translate(6 3)"/><circle class="c" cx="3" cy="3" r="3" transform="translate(0 12) rotate(-90)"/></g><g transform="translate(3 14)"><path class="b" d="M4,8,0,4,4,0" transform="translate(23) rotate(90)"/><path class="b" d="M13,0V2c0,2.209-1.455,4-3.25,4H0" transform="translate(6 3)"/><circle class="b" cx="3" cy="3" r="3" transform="translate(0 12) rotate(-90)"/></g></g></g></svg>