<svg xmlns="http://www.w3.org/2000/svg" width="104" height="104" viewBox="0 0 104 104">
  <g id="prd" transform="translate(-1301 -41)">
    <circle id="Ellipse_22" data-name="Ellipse 22" cx="52" cy="52" r="52" transform="translate(1301 41)" fill="rgba(246,75,93,0.1)"/>
    <g id="open-box" transform="translate(1288.155 57)">
      <g id="Group_874" data-name="Group 874" transform="translate(32.845 20.337)" opacity="0.8">
        <path id="Path_2207" data-name="Path 2207" d="M95.644,158.508l-5.28-8.711a1.41,1.41,0,0,0-.759-.605l-19.378-6.484a1.456,1.456,0,0,0-.156-.043l-1.27,1.4,1.27,1.548,14.67,4.909-20.4,6.825-20.4-6.825,14.67-4.909,1.412-1.576-1.412-1.362a1.443,1.443,0,0,0-.194.05l-19.34,6.471a1.316,1.316,0,0,0-.755.6l-5.283,8.716a1.391,1.391,0,0,0,.075,1.553,1.469,1.469,0,0,0,.673.49l4.33,1.621v22.456a1.4,1.4,0,0,0,.96,1.325l24.809,8.3.018.006h0a1.416,1.416,0,0,0,.863,0l.018-.006,24.809-8.3a1.4,1.4,0,0,0,.96-1.325V162.172l4.33-1.621a1.47,1.47,0,0,0,.673-.49,1.39,1.39,0,0,0,.075-1.553Zm-59.306,0,3.824-6.309,21.7,7.261-5.837,6.42Zm26.6,32.468-21.986-7.357V163.229l14.979,5.609a1.421,1.421,0,0,0,1.548-.372l5.459-6V190.98Zm24.809-7.357L65.757,190.98V162.461l5.459,6a1.421,1.421,0,0,0,1.548.372l14.979-5.609v20.395Zm-15.075-17.74-5.837-6.42,21.7-7.261,3.824,6.309Z" transform="translate(-32.845 -142.665)" fill="#1a2455"/>
      </g>
      <g id="Group_876" data-name="Group 876" transform="translate(51.296)">
        <g id="Group_875" data-name="Group 875">
          <path id="Path_2208" data-name="Path 2208" d="M190.56,17.339,177.51,0,164.461,17.339h7.266V28.314h11.566V17.339Z" transform="translate(-164.461)" fill="#f87885"/>
        </g>
      </g>
    </g>
  </g>
</svg>
