<svg xmlns="http://www.w3.org/2000/svg" width="29.93" height="27.628" viewBox="0 0 29.93 27.628">
  <g id="Group_1791" data-name="Group 1791" transform="translate(-945.879 -235)">
    <path id="Icon_metro-qrcode" data-name="Icon metro-qrcode" d="M8.551,3.124H3.767V7.908H8.551Zm1.2-1.2V9.1H2.571V1.928ZM4.963,4.32H7.355V6.712H4.963Zm15.549-1.2H15.727V7.908h4.784V3.124Zm1.2-1.2V9.1H14.531V1.928ZM16.923,4.32h2.392V6.712H16.923ZM8.551,15.084H3.767v4.784H8.551Zm1.2-1.2v7.176H2.571V13.888ZM4.963,16.281H7.355v2.392H4.963Zm5.98-14.352h1.2v1.2h-1.2Zm1.2,1.2h1.2v1.2h-1.2Zm-1.2,1.2h1.2v1.2h-1.2Zm1.2,1.2h1.2v1.2h-1.2Zm-1.2,1.2h1.2v1.2h-1.2Zm1.2,1.2h1.2V9.1h-1.2Zm-1.2,1.2h1.2v1.2h-1.2Zm0,2.392h1.2v1.2h-1.2Zm1.2,1.2h1.2v1.2h-1.2Zm-1.2,1.2h1.2v1.2h-1.2Zm1.2,1.2h1.2v1.2h-1.2Zm-1.2,1.2h1.2v1.2h-1.2Zm1.2,1.2h1.2v1.2h-1.2Zm-1.2,1.2h1.2v1.2h-1.2Zm1.2,1.2h1.2v1.2h-1.2ZM20.511,11.5h1.2v1.2h-1.2Zm-16.745,0h1.2v1.2h-1.2Zm1.2-1.2h1.2v1.2h-1.2Zm-2.392,0h1.2v1.2h-1.2Zm4.784,0h1.2v1.2h-1.2Zm1.2,1.2h1.2v1.2h-1.2Zm1.2-1.2h1.2v1.2h-1.2Zm3.588,1.2h1.2v1.2h-1.2Zm1.2-1.2h1.2v1.2h-1.2Zm1.2,1.2h1.2v1.2h-1.2Zm1.2-1.2h1.2v1.2h-1.2Zm1.2,1.2h1.2v1.2h-1.2Zm1.2-1.2h1.2v1.2h-1.2Zm1.2,3.588h1.2v1.2h-1.2Zm-7.176,0h1.2v1.2h-1.2Zm1.2-1.2h1.2v1.2h-1.2Zm1.2,1.2h1.2v1.2h-1.2Zm2.392,0h1.2v1.2h-1.2Zm1.2-1.2h1.2v1.2h-1.2Zm1.2,3.588h1.2v1.2h-1.2Zm-7.176,0h1.2v1.2h-1.2Zm1.2-1.2h1.2v1.2h-1.2Zm2.392,0h1.2v1.2h-1.2Zm1.2,1.2h1.2v1.2h-1.2Zm1.2-1.2h1.2v1.2h-1.2Zm1.2,3.588h1.2v1.2h-1.2Zm-5.98-1.2h1.2v1.2h-1.2Zm1.2,1.2h1.2v1.2h-1.2Zm1.2-1.2h1.2v1.2h-1.2Zm1.2,1.2h1.2v1.2h-1.2Zm-3.588,1.2h1.2v1.2h-1.2Zm2.392,0h1.2v1.2h-1.2Zm2.392,0h1.2v1.2h-1.2Z" transform="translate(949.004 237.28)" fill="#414764"/>
    <g id="Icon_ionic-ios-qr-scanner" data-name="Icon ionic-ios-qr-scanner" transform="translate(945.879 235)">
      <path id="Path_6012" data-name="Path 6012" d="M12.44,4.5H8.21A4.836,4.836,0,0,0,3.375,9.335v4.231a1.007,1.007,0,0,0,2.015,0v-4.3a2.761,2.761,0,0,1,.842-1.885,2.747,2.747,0,0,1,1.907-.863h4.3a1.007,1.007,0,0,0,0-2.015Z" transform="translate(-3.375 -4.5)" fill="#00adbe"/>
      <path id="Path_6013" data-name="Path 6013" d="M28.091,4.5h-4.3a1.007,1.007,0,0,0,0,2.015h4.3A2.747,2.747,0,0,1,30,7.378a2.761,2.761,0,0,1,.842,1.885v4.3a1.007,1.007,0,0,0,2.015,0v-4.3A4.769,4.769,0,0,0,28.091,4.5Z" transform="translate(-2.924 -4.5)" fill="#00adbe"/>
      <path id="Path_6014" data-name="Path 6014" d="M12.44,29.714h-4.3a2.747,2.747,0,0,1-1.907-.863,2.761,2.761,0,0,1-.842-1.885v-4.3a1.007,1.007,0,1,0-2.015,0v4.3a4.769,4.769,0,0,0,4.763,4.763h4.3a1.007,1.007,0,0,0,0-2.015Z" transform="translate(-3.375 -4.101)" fill="#00adbe"/>
      <path id="Path_6015" data-name="Path 6015" d="M31.847,21.656a1.01,1.01,0,0,0-1.007,1.007v4.3a2.929,2.929,0,0,1-2.748,2.748h-4.3a1.007,1.007,0,1,0,0,2.015h4.231a4.841,4.841,0,0,0,4.835-4.835V22.664A1.01,1.01,0,0,0,31.847,21.656Z" transform="translate(-2.924 -4.101)" fill="#00adbe"/>
    </g>
  </g>
</svg>
