<svg xmlns="http://www.w3.org/2000/svg" width="32" height="32" viewBox="0 0 32 32"><defs><style>.a{fill:none;}.b,.c{fill:#fff;}.c{stroke-linecap:round;stroke-linejoin:round;}.d,.e{stroke:none;}.e{fill:#fff;}</style></defs><rect class="a" width="32" height="32"/><g transform="translate(3 4)"><path class="b" d="M17.275,3h-4.55a1.321,1.321,0,0,0-1.3,1.333V25.667A1.321,1.321,0,0,0,12.725,27h4.55a1.321,1.321,0,0,0,1.3-1.333V4.333A1.321,1.321,0,0,0,17.275,3ZM26.7,13.667H22.15A1.321,1.321,0,0,0,20.85,15V25.667A1.321,1.321,0,0,0,22.15,27H26.7A1.321,1.321,0,0,0,28,25.667V15A1.321,1.321,0,0,0,26.7,13.667Z" transform="translate(-2 -3)"/><g class="c" transform="translate(-2 -3)"><path class="d" d="M 7.84999942779541 26.25 L 3.299999237060547 26.25 C 3.001869440078735 26.25 2.749999284744263 25.98287010192871 2.749999284744263 25.66666984558105 L 2.749999284744263 12.33333969116211 C 2.749999284744263 12.01714038848877 3.001869440078735 11.75 3.299999237060547 11.75 L 7.84999942779541 11.75 C 8.148129463195801 11.75 8.399999618530273 12.01714038848877 8.399999618530273 12.33333969116211 L 8.399999618530273 25.66666984558105 C 8.399999618530273 25.98287010192871 8.148129463195801 26.25 7.84999942779541 26.25 Z"/><path class="e" d="M 7.649999141693115 25.5 L 7.649999141693115 12.5 L 3.499999284744263 12.5 L 3.499999284744263 25.5 L 7.649999141693115 25.5 M 7.84999942779541 27 L 3.299999237060547 27 C 2.584999322891235 27 1.999999284744263 26.39999961853027 1.999999284744263 25.66666984558105 L 1.999999284744263 12.33333969116211 C 1.999999284744263 11.60000038146973 2.584999322891235 11 3.299999237060547 11 L 7.84999942779541 11 C 8.564999580383301 11 9.149999618530273 11.60000038146973 9.149999618530273 12.33333969116211 L 9.149999618530273 25.66666984558105 C 9.149999618530273 26.39999961853027 8.564999580383301 27 7.84999942779541 27 Z"/></g></g></svg>