<svg xmlns="http://www.w3.org/2000/svg" width="104" height="104" viewBox="0 0 104 104">
  <g id="theme" transform="translate(-1301 -41)">
    <circle id="Ellipse_22" data-name="Ellipse 22" cx="52" cy="52" r="52" transform="translate(1301 41)" fill="rgba(246,75,93,0.1)"/>
    <g id="laptop" transform="translate(1317 18.131)">
      <g id="Group_873" data-name="Group 873" transform="translate(0 44.868)">
        <g id="Group_871" data-name="Group 871" transform="translate(0 0)">
          <path id="Path_2202" data-name="Path 2202" d="M398.513,246.6a1.416,1.416,0,0,0,2,0l3.24-3.24a1.416,1.416,0,0,0,0-2l-3.24-3.24a1.416,1.416,0,1,0-2,2l2.239,2.239-2.239,2.239A1.416,1.416,0,0,0,398.513,246.6Z" transform="translate(-342.229 -210.284)" fill="rgba(26,36,85,0.8)"/>
          <path id="Path_2203" data-name="Path 2203" d="M76.68,238.116a1.417,1.417,0,0,0-2,0l-3.24,3.24a1.416,1.416,0,0,0,0,2l3.24,3.24a1.416,1.416,0,0,0,2-2l-2.239-2.239,2.239-2.239a1.416,1.416,0,0,0,0-2Z" transform="translate(-60.964 -210.284)" fill="rgba(26,36,85,0.8)"/>
          <path id="Path_2204" data-name="Path 2204" d="M70.594,91.63H69.274V50.658a5.767,5.767,0,0,0-5.73-5.79H8.456a5.767,5.767,0,0,0-5.73,5.79V91.63H1.406A1.414,1.414,0,0,0,0,93.051v5.315a6.476,6.476,0,0,0,6.435,6.5h59.13A6.476,6.476,0,0,0,72,98.366V93.051A1.414,1.414,0,0,0,70.594,91.63ZM8.456,47.71H63.544a2.936,2.936,0,0,1,2.918,2.948v3.955H5.538V50.658A2.936,2.936,0,0,1,8.456,47.71ZM5.538,57.455H66.462V91.63H46.179a1.414,1.414,0,0,0-1.406,1.421A1.639,1.639,0,0,1,43.144,94.7H28.856a1.639,1.639,0,0,1-1.629-1.646,1.414,1.414,0,0,0-1.406-1.421H5.538ZM69.188,98.366a3.646,3.646,0,0,1-3.623,3.66H6.435a3.646,3.646,0,0,1-3.623-3.66V94.472h21.83a4.454,4.454,0,0,0,4.213,3.067H43.144a4.454,4.454,0,0,0,4.213-3.067h21.83Z" transform="translate(0 -44.868)" fill="rgba(26,36,85,0.8)"/>
          <path id="Path_2205" data-name="Path 2205" d="M241.8,80.811h1.591a1.416,1.416,0,0,0,0-2.832H241.8a1.416,1.416,0,0,0,0,2.832Z" transform="translate(-206.595 -73.29)" fill="rgba(26,36,85,0.8)"/>
        </g>
        <g id="Group_872" data-name="Group 872" transform="translate(21.504 17.627)">
          <path id="Path_2206" data-name="Path 2206" d="M177.11,168.63h-4.829a2.955,2.955,0,0,1-2.955,2.955h-2.382a2.955,2.955,0,0,1-2.955-2.955H159.16c-1.861,0-5.521,1.751-5.521,5.521v8.283h5.742v10.942H176.89V182.435h5.742v-8.283A5.627,5.627,0,0,0,177.11,168.63Z" transform="translate(-153.639 -168.63)" fill="#f87885"/>
        </g>
      </g>
    </g>
  </g>
</svg>
