<svg xmlns="http://www.w3.org/2000/svg" width="36" height="32" viewBox="0 0 36 32">
  <g id="wallet_1_" data-name="wallet (1)" transform="translate(-6 -7)">
    <g id="color" transform="translate(7.11 8.11)">
      <g id="Group_1571" data-name="Group 1571" transform="translate(0 2.216)">
        <path id="Path_4718" data-name="Path 4718" d="M32.661,10.728v4.442H9.711A2.96,2.96,0,0,1,6.75,12.208,2.983,2.983,0,0,1,9.711,9.247H31.18A1.475,1.475,0,0,1,32.661,10.728Z" transform="translate(-6.75 -9.247)" fill="rgba(246,75,93,0.05)"/>
      </g>
      <g id="Group_1572" data-name="Group 1572" transform="translate(0 2.216)">
        <path id="Path_4719" data-name="Path 4719" d="M10.081,12.208a2.983,2.983,0,0,1,2.961-2.961H9.711A2.983,2.983,0,0,0,6.75,12.208a2.96,2.96,0,0,0,2.961,2.961h3.331A2.96,2.96,0,0,1,10.081,12.208Z" transform="translate(-6.75 -9.247)" fill="rgba(246,75,93,0.1)"/>
      </g>
      <g id="Group_1573" data-name="Group 1573" transform="translate(0 5.345)">
        <path id="Path_4720" data-name="Path 4720" d="M37.568,15.689V34.2a1.5,1.5,0,0,1-1.5,1.481H9.757A2.993,2.993,0,0,1,6.75,32.716V11.247a2.983,2.983,0,0,0,3.007,2.961H36.065A1.5,1.5,0,0,1,37.568,15.689Z" transform="translate(-6.75 -11.247)" fill="rgba(246,75,93,0.05)"/>
      </g>
      <g id="Group_1574" data-name="Group 1574" transform="translate(0 5.345)">
        <path id="Path_4721" data-name="Path 4721" d="M10.081,32.716V14.208h-.37A2.96,2.96,0,0,1,6.75,11.247V32.716a2.97,2.97,0,0,0,2.961,2.961h3.331A2.97,2.97,0,0,1,10.081,32.716Z" transform="translate(-6.75 -11.247)" fill="rgba(246,75,93,0.1)"/>
      </g>
      <g id="Group_1575" data-name="Group 1575" transform="translate(24.895 15.66)">
        <path id="Path_4722" data-name="Path 4722" d="M32.134,24.913H26.581a3.331,3.331,0,0,1,0-6.663h5.552Z" transform="translate(-23.25 -18.25)" fill="#f87885"/>
      </g>
      <g id="Group_1576" data-name="Group 1576" transform="translate(24.895 15.66)">
        <path id="Path_4723" data-name="Path 4723" d="M26.581,21.581a3.331,3.331,0,0,1,3.331-3.331H26.581a3.331,3.331,0,0,0,0,6.663h3.331A3.331,3.331,0,0,1,26.581,21.581Z" transform="translate(-23.25 -18.25)" fill="#f87885"/>
      </g>
      <g id="Group_1577" data-name="Group 1577" transform="translate(6.992)">
        <path id="Path_4724" data-name="Path 4724" d="M24.907,7.75l-3.7,2.221L11.33,15.893H29.66Z" transform="translate(-11.33 -7.75)" fill="#f87885"/>
      </g>
      <g id="Group_1578" data-name="Group 1578" transform="translate(6.953)">
        <path id="Path_4725" data-name="Path 4725" d="M24.907,7.75l-3.7,2.221L11.33,15.893h5.182l9.739-5.841Z" transform="translate(-11.33 -7.75)" fill="#f87885"/>
      </g>
    </g>
    <g id="line" transform="translate(6 7)">
      <g id="Group_1584" data-name="Group 1584" transform="translate(0 2.22)">
        <path id="Path_4730" data-name="Path 4730" d="M8.221,12.572H6A4.076,4.076,0,0,1,10.072,8.5h13.7v2.221h-13.7A1.853,1.853,0,0,0,8.221,12.572Z" transform="translate(-6 -8.5)" fill="#474f77"/>
      </g>
      <g id="Group_1585" data-name="Group 1585" transform="translate(0 6.459)">
        <path id="Path_4731" data-name="Path 4731" d="M36.411,36.791H10.13A4.1,4.1,0,0,1,6,32.719V11.25H8.253V32.719A1.866,1.866,0,0,0,10.13,34.57H36.411a.377.377,0,0,0,.375-.37V28.277h2.253V34.2A2.613,2.613,0,0,1,36.411,36.791Z" transform="translate(-6 -11.25)" fill="#474f77"/>
      </g>
      <g id="Group_1586" data-name="Group 1586" transform="translate(24.895 15.659)">
        <path id="Path_4732" data-name="Path 4732" d="M32.494,26.384H26.942a4.442,4.442,0,0,1,0-8.884h5.552a1.111,1.111,0,0,1,1.11,1.11v6.663A1.111,1.111,0,0,1,32.494,26.384Zm-5.552-6.663a2.221,2.221,0,1,0,0,4.442h4.442V19.721Z" transform="translate(-22.5 -17.5)" fill="#474f77"/>
      </g>
      <g id="Group_1587" data-name="Group 1587" transform="translate(23.123 2.22)">
        <path id="Path_4733" data-name="Path 4733" d="M26.74,15.533H24.519V11.091a.374.374,0,0,0-.37-.37H21.38V8.5h2.769a2.594,2.594,0,0,1,2.591,2.591Z" transform="translate(-21.38 -8.5)" fill="#474f77"/>
      </g>
      <g id="Group_1588" data-name="Group 1588" transform="translate(7.539)">
        <path id="Path_4734" data-name="Path 4734" d="M12.087,17.206l-1.142-1.9L24.522,7.158a1.109,1.109,0,0,1,1.529.394L30.8,15.7l-1.917,1.119L24.7,9.643Z" transform="translate(-10.945 -7)" fill="#474f77"/>
      </g>
      <g id="Group_1589" data-name="Group 1589" transform="translate(0 6.341)">
        <path id="Path_4735" data-name="Path 4735" d="M39.039,21.614H36.786V15.692a.377.377,0,0,0-.375-.37H10.13a4.128,4.128,0,0,1-2.913-1.2A4.009,4.009,0,0,1,6,11.25H8.253a1.829,1.829,0,0,0,.556,1.3,1.882,1.882,0,0,0,1.322.548H36.411a2.613,2.613,0,0,1,2.628,2.591Z" transform="translate(-6 -11.25)" fill="#474f77"/>
      </g>
    </g>
  </g>
</svg>
