<svg xmlns="http://www.w3.org/2000/svg" width="48" height="48" viewBox="0 0 48 48">
  <g id="whatsapp" transform="translate(-0.051 0.034)">
    <path id="Path_4496" data-name="Path 4496" d="M39.979,7.167l.028-.074C25.2-7.113.7,3.186.695,23.23A22.482,22.482,0,0,0,3.767,34.592L.5,46.371l12.2-3.157A24.357,24.357,0,0,0,23.7,45.98c20.472,0,30.663-24.589,16.277-38.813ZM34.165,31.5c-4.47,8.765-23.62-4.336-23.62-13.484a6.467,6.467,0,0,1,2.071-4.848,3.134,3.134,0,0,1,2.71-.674c1.551,0,1.457,1.954,3.158,5.321a1.07,1.07,0,0,1,.05,1.027c-1.207,2.258-2.334,2.188-1.74,3.2A17.8,17.8,0,0,0,20.084,26.1a16.171,16.171,0,0,0,4.761,2.91c1.284.576,1.2-.285,3.15-2.423a.984.984,0,0,1,1.334-.293,47.16,47.16,0,0,1,5.189,2.421,3.668,3.668,0,0,1-.354,2.788Z" transform="translate(0.447 0.531)" fill="rgba(246,75,93,0.8)"/>
    <path id="Path_4497" data-name="Path 4497" d="M21.862,30.333c8.077,1.923,10.919-4.986,9.5-7.565-.57-1.029-5.7-3.006-5.945-3.1-2.2-.8-3.016.694-4.541,2.663-2.93-1.466-4.894-2.621-6.913-5.9.114-.142.265-.309.379-.437.706-.79,2.028-2.262,1.127-4.063a27.346,27.346,0,0,1-1.412-3.335c-.8-2.236-1.416-2.842-4.184-2.842C6.986,5.75,4.75,9.537,4.75,12.8,4.75,19.916,14.319,28.532,21.862,30.333ZM9.868,8.742a7.845,7.845,0,0,1,1.053.044,33.278,33.278,0,0,0,1.855,4.334c-.187.7-2.85,2.341-1.615,4.463,2.523,4.284,5.048,5.77,8.666,7.569,2.409,1.089,3.179-.884,4.707-2.617.708.287,3.1,1.344,4.146,1.875-.094,2.066-2.088,3.973-6.123,3.012C15.631,25.768,7.74,17.978,7.74,12.8c0-1.97,1.384-4.055,2.128-4.055Z" transform="translate(4.825 5.751)" fill="#414764"/>
    <path id="Path_4498" data-name="Path 4498" d="M.116,46.074a1.5,1.5,0,0,0,1.452,1.893c.362,0-.229.092,11.745-2.992,4.875,2.465,8.58,2.387,10.946,2.609,21.2,0,31.583-25.674,16.993-40.612-20-19.194-51.143,4.659-38.11,28.175ZM38.855,8.835c.347.63,10.313,9.555,4.764,22.892A20.451,20.451,0,0,1,23.486,44.532c-7.186-.4-9.046-2.946-10.37-2.6L3.711,44.369l2.5-9.023A1.487,1.487,0,0,0,6.065,34.2C-5.952,13.609,21.22-7.561,38.855,8.835Z" transform="translate(0 0)" fill="#414764"/>
  </g>
</svg>
